<?xml version="1.0" encoding="UTF-8"?>
<!-- Generator: visioncortex VTracer 0.6.3 -->
<svg version="1.1" xmlns="http://www.w3.org/2000/svg" width="1280" height="1280">
<path d="M0 0 C127.38 0 254.76 0 386 0 C386 20.79 386 41.58 386 63 C395.16 62.99 404.31 62.98 413.75 62.96 C419.53 62.96 425.31 62.95 431.1 62.95 C440.29 62.95 449.47 62.94 458.66 62.92 C465.36 62.91 472.05 62.91 478.74 62.91 C482.28 62.9 485.83 62.9 489.37 62.89 C493.33 62.89 497.28 62.89 501.23 62.89 C502.41 62.88 503.6 62.88 504.82 62.88 C505.89 62.88 506.96 62.88 508.06 62.88 C508.99 62.88 509.93 62.88 510.89 62.88 C513 63 513 63 514 64 C514.09 65.96 514.12 67.93 514.11 69.9 C514.11 71.16 514.11 72.42 514.11 73.72 C514.11 75.11 514.1 76.49 514.1 77.88 C514.1 79.29 514.09 80.7 514.09 82.11 C514.09 85.83 514.08 89.55 514.07 93.27 C514.06 97.07 514.05 100.86 514.05 104.65 C514.04 112.1 514.02 119.55 514 127 C514.65 127 515.31 127 515.98 127 C531.86 126.98 547.74 126.96 563.62 126.95 C571.3 126.94 578.98 126.94 586.66 126.92 C593.36 126.91 600.05 126.91 606.74 126.91 C610.28 126.9 613.83 126.9 617.37 126.89 C621.33 126.89 625.28 126.89 629.23 126.89 C630.41 126.88 631.6 126.88 632.82 126.88 C633.89 126.88 634.96 126.88 636.06 126.88 C636.99 126.88 637.93 126.88 638.89 126.88 C641 127 641 127 642 128 C642.09 129.96 642.12 131.93 642.11 133.9 C642.11 135.79 642.11 135.79 642.11 137.72 C642.11 139.11 642.1 140.49 642.1 141.88 C642.1 143.29 642.09 144.7 642.09 146.11 C642.09 149.83 642.08 153.55 642.07 157.27 C642.06 161.07 642.05 164.86 642.05 168.65 C642.04 176.1 642.02 183.55 642 191 C642.79 191 643.57 191 644.38 190.99 C651.79 190.97 659.19 190.96 666.59 190.95 C670.4 190.94 674.2 190.94 678.01 190.92 C681.68 190.91 685.35 190.91 689.02 190.91 C690.42 190.9 691.82 190.9 693.23 190.89 C695.19 190.89 697.14 190.89 699.1 190.89 C700.78 190.88 700.78 190.88 702.49 190.88 C705 191 705 191 706 192 C706.1 193.64 706.12 195.29 706.12 196.94 C706.12 198.01 706.12 199.08 706.12 200.18 C706.12 201.37 706.12 202.55 706.11 203.77 C706.11 205.01 706.11 206.25 706.11 207.53 C706.11 210.93 706.11 214.34 706.1 217.75 C706.1 221.3 706.09 224.86 706.09 228.42 C706.09 235.16 706.08 241.9 706.07 248.64 C706.06 256.31 706.06 263.98 706.05 271.65 C706.04 287.43 706.02 303.22 706 319 C706.79 319 707.57 319 708.38 318.99 C715.79 318.97 723.19 318.96 730.59 318.95 C734.4 318.94 738.2 318.94 742.01 318.92 C745.68 318.91 749.35 318.91 753.02 318.91 C754.42 318.9 755.82 318.9 757.23 318.89 C759.19 318.89 761.14 318.89 763.1 318.89 C764.22 318.88 765.34 318.88 766.49 318.88 C769 319 769 319 770 320 C770.1 321.64 770.12 323.29 770.12 324.94 C770.12 326.01 770.12 327.08 770.12 328.18 C770.12 329.37 770.12 330.55 770.11 331.77 C770.11 333.01 770.11 334.25 770.11 335.53 C770.11 338.93 770.11 342.34 770.1 345.75 C770.1 349.3 770.09 352.86 770.09 356.42 C770.09 363.16 770.08 369.9 770.07 376.64 C770.06 385.74 770.05 394.84 770.05 403.95 C770.04 418.3 770.02 432.65 770 447 C790.79 447 811.58 447 833 447 C833 574.38 833 701.76 833 833 C812.21 833 791.42 833 770 833 C770.01 842.16 770.02 851.31 770.04 860.75 C770.04 866.53 770.05 872.31 770.05 878.1 C770.05 887.29 770.06 896.47 770.08 905.66 C770.09 912.36 770.09 919.05 770.09 925.74 C770.1 929.28 770.1 932.83 770.11 936.37 C770.11 940.33 770.11 944.28 770.11 948.23 C770.12 949.41 770.12 950.6 770.12 951.82 C770.12 953.42 770.12 953.42 770.12 955.06 C770.12 955.99 770.12 956.93 770.12 957.89 C770 960 770 960 769 961 C767.04 961.09 765.07 961.12 763.1 961.11 C761.84 961.11 760.58 961.11 759.28 961.11 C757.89 961.11 756.51 961.1 755.12 961.1 C753.71 961.1 752.3 961.09 750.89 961.09 C747.17 961.09 743.45 961.08 739.73 961.07 C735.93 961.06 732.14 961.05 728.35 961.05 C720.9 961.04 713.45 961.02 706 961 C706 961.65 706 962.31 706 962.98 C706.02 978.86 706.04 994.74 706.05 1010.62 C706.06 1018.3 706.06 1025.98 706.08 1033.66 C706.09 1040.36 706.09 1047.05 706.09 1053.74 C706.1 1057.28 706.1 1060.83 706.11 1064.37 C706.11 1068.33 706.11 1072.28 706.11 1076.23 C706.12 1077.41 706.12 1078.6 706.12 1079.82 C706.12 1081.42 706.12 1081.42 706.12 1083.06 C706.12 1083.99 706.12 1084.93 706.12 1085.89 C706 1088 706 1088 705 1089 C703.04 1089.09 701.07 1089.12 699.1 1089.11 C697.84 1089.11 696.58 1089.11 695.28 1089.11 C693.89 1089.11 692.51 1089.1 691.12 1089.1 C689.71 1089.1 688.3 1089.09 686.89 1089.09 C683.17 1089.09 679.45 1089.08 675.73 1089.07 C671.93 1089.06 668.14 1089.05 664.35 1089.05 C656.9 1089.04 649.45 1089.02 642 1089 C642 1089.79 642 1090.57 642.01 1091.38 C642.03 1098.79 642.04 1106.19 642.05 1113.59 C642.06 1117.4 642.06 1121.2 642.08 1125.01 C642.09 1128.68 642.09 1132.35 642.09 1136.02 C642.1 1137.42 642.1 1138.82 642.11 1140.23 C642.11 1142.19 642.11 1144.14 642.11 1146.1 C642.12 1147.22 642.12 1148.34 642.12 1149.49 C642 1152 642 1152 641 1153 C639.36 1153.1 637.71 1153.12 636.06 1153.12 C634.99 1153.12 633.92 1153.12 632.82 1153.12 C631.63 1153.12 630.45 1153.12 629.23 1153.11 C627.37 1153.11 627.37 1153.11 625.47 1153.11 C622.07 1153.11 618.66 1153.11 615.25 1153.1 C611.7 1153.1 608.14 1153.09 604.58 1153.09 C597.84 1153.09 591.1 1153.08 584.36 1153.07 C576.69 1153.06 569.02 1153.06 561.35 1153.05 C545.57 1153.04 529.78 1153.02 514 1153 C514 1153.79 514 1154.57 514.01 1155.38 C514.03 1162.79 514.04 1170.19 514.05 1177.59 C514.06 1181.4 514.06 1185.2 514.08 1189.01 C514.09 1192.68 514.09 1196.35 514.09 1200.02 C514.1 1201.42 514.1 1202.82 514.11 1204.23 C514.11 1206.19 514.11 1208.14 514.11 1210.1 C514.12 1211.22 514.12 1212.34 514.12 1213.49 C514 1216 514 1216 513 1217 C511.36 1217.1 509.71 1217.12 508.06 1217.12 C506.99 1217.12 505.92 1217.12 504.82 1217.12 C503.63 1217.12 502.45 1217.12 501.23 1217.11 C499.37 1217.11 499.37 1217.11 497.47 1217.11 C494.07 1217.11 490.66 1217.11 487.25 1217.1 C483.7 1217.1 480.14 1217.09 476.58 1217.09 C469.84 1217.09 463.1 1217.08 456.36 1217.07 C447.26 1217.06 438.16 1217.05 429.05 1217.05 C414.7 1217.04 400.35 1217.02 386 1217 C386 1237.79 386 1258.58 386 1280 C258.62 1280 131.24 1280 0 1280 C0 1259.21 0 1238.42 0 1217 C-13.73 1217.02 -13.73 1217.02 -27.75 1217.04 C-33.53 1217.04 -39.31 1217.05 -45.1 1217.05 C-54.29 1217.05 -63.47 1217.06 -72.66 1217.08 C-79.36 1217.09 -86.05 1217.09 -92.74 1217.09 C-96.28 1217.1 -99.83 1217.1 -103.37 1217.11 C-107.33 1217.11 -111.28 1217.11 -115.23 1217.11 C-116.41 1217.12 -117.6 1217.12 -118.82 1217.12 C-119.89 1217.12 -120.96 1217.12 -122.06 1217.12 C-122.99 1217.12 -123.93 1217.12 -124.89 1217.12 C-127 1217 -127 1217 -128 1216 C-128.09 1214.04 -128.12 1212.07 -128.11 1210.1 C-128.11 1208.84 -128.11 1207.58 -128.11 1206.28 C-128.11 1204.89 -128.1 1203.51 -128.1 1202.12 C-128.1 1200.71 -128.09 1199.3 -128.09 1197.89 C-128.09 1194.17 -128.08 1190.45 -128.07 1186.73 C-128.06 1182.93 -128.05 1179.14 -128.05 1175.35 C-128.04 1167.9 -128.02 1160.45 -128 1153 C-128.65 1153 -129.31 1153 -129.98 1153 C-145.86 1153.02 -161.74 1153.04 -177.62 1153.05 C-185.3 1153.06 -192.98 1153.06 -200.66 1153.08 C-207.36 1153.09 -214.05 1153.09 -220.74 1153.09 C-224.28 1153.1 -227.83 1153.1 -231.37 1153.11 C-235.33 1153.11 -239.28 1153.11 -243.23 1153.11 C-244.41 1153.12 -245.6 1153.12 -246.82 1153.12 C-247.89 1153.12 -248.96 1153.12 -250.06 1153.12 C-250.99 1153.12 -251.93 1153.12 -252.89 1153.12 C-255 1153 -255 1153 -256 1152 C-256.09 1150.04 -256.12 1148.07 -256.11 1146.1 C-256.11 1144.84 -256.11 1143.58 -256.11 1142.28 C-256.11 1140.89 -256.1 1139.51 -256.1 1138.12 C-256.1 1136.71 -256.09 1135.3 -256.09 1133.89 C-256.09 1130.17 -256.08 1126.45 -256.07 1122.73 C-256.06 1118.93 -256.05 1115.14 -256.05 1111.35 C-256.04 1103.9 -256.02 1096.45 -256 1089 C-256.79 1089 -257.57 1089 -258.38 1089.01 C-265.79 1089.03 -273.19 1089.04 -280.59 1089.05 C-284.4 1089.06 -288.2 1089.06 -292.01 1089.08 C-295.68 1089.09 -299.35 1089.09 -303.02 1089.09 C-304.42 1089.1 -305.82 1089.1 -307.23 1089.11 C-309.19 1089.11 -311.14 1089.11 -313.1 1089.11 C-314.22 1089.12 -315.34 1089.12 -316.49 1089.12 C-319 1089 -319 1089 -320 1088 C-320.1 1086.36 -320.12 1084.71 -320.12 1083.06 C-320.12 1081.45 -320.12 1081.45 -320.12 1079.82 C-320.12 1078.04 -320.12 1078.04 -320.11 1076.23 C-320.11 1074.99 -320.11 1073.75 -320.11 1072.47 C-320.11 1069.07 -320.11 1065.66 -320.1 1062.25 C-320.1 1058.7 -320.09 1055.14 -320.09 1051.58 C-320.09 1044.84 -320.08 1038.1 -320.07 1031.36 C-320.06 1023.69 -320.06 1016.02 -320.05 1008.35 C-320.04 992.57 -320.02 976.78 -320 961 C-320.79 961 -321.57 961 -322.38 961.01 C-329.79 961.03 -337.19 961.04 -344.59 961.05 C-348.4 961.06 -352.2 961.06 -356.01 961.08 C-359.68 961.09 -363.35 961.09 -367.02 961.09 C-368.42 961.1 -369.82 961.1 -371.23 961.11 C-373.19 961.11 -375.14 961.11 -377.1 961.11 C-378.22 961.12 -379.34 961.12 -380.49 961.12 C-383 961 -383 961 -384 960 C-384.1 958.36 -384.12 956.71 -384.12 955.06 C-384.12 953.99 -384.12 952.92 -384.12 951.82 C-384.12 950.04 -384.12 950.04 -384.11 948.23 C-384.11 946.99 -384.11 945.75 -384.11 944.47 C-384.11 941.07 -384.11 937.66 -384.1 934.25 C-384.1 930.7 -384.09 927.14 -384.09 923.58 C-384.09 916.84 -384.08 910.1 -384.07 903.36 C-384.06 894.26 -384.05 885.16 -384.05 876.05 C-384.04 861.7 -384.02 847.35 -384 833 C-404.79 833 -425.58 833 -447 833 C-447 705.62 -447 578.24 -447 447 C-426.21 447 -405.42 447 -384 447 C-384.01 437.84 -384.02 428.69 -384.04 419.25 C-384.04 413.47 -384.05 407.69 -384.05 401.9 C-384.05 392.71 -384.06 383.53 -384.08 374.34 C-384.09 367.64 -384.09 360.95 -384.09 354.26 C-384.1 350.72 -384.1 347.17 -384.11 343.63 C-384.11 339.67 -384.11 335.72 -384.11 331.77 C-384.12 330.59 -384.12 329.4 -384.12 328.18 C-384.12 327.11 -384.12 326.04 -384.12 324.94 C-384.12 324.01 -384.12 323.07 -384.12 322.11 C-384 320 -384 320 -383 319 C-381.04 318.91 -379.07 318.88 -377.1 318.89 C-375.84 318.89 -374.58 318.89 -373.28 318.89 C-371.89 318.89 -370.51 318.9 -369.12 318.9 C-367.71 318.9 -366.3 318.91 -364.89 318.91 C-361.17 318.91 -357.45 318.92 -353.73 318.93 C-349.93 318.94 -346.14 318.95 -342.35 318.95 C-334.9 318.96 -327.45 318.98 -320 319 C-320 318.35 -320 317.69 -320 317.02 C-320.02 301.14 -320.04 285.26 -320.05 269.38 C-320.06 261.7 -320.06 254.02 -320.08 246.34 C-320.09 239.64 -320.09 232.95 -320.09 226.26 C-320.1 222.72 -320.1 219.17 -320.11 215.63 C-320.11 211.67 -320.11 207.72 -320.11 203.77 C-320.12 202.59 -320.12 201.4 -320.12 200.18 C-320.12 199.11 -320.12 198.04 -320.12 196.94 C-320.12 196.01 -320.12 195.07 -320.12 194.11 C-320 192 -320 192 -319 191 C-317.04 190.91 -315.07 190.88 -313.1 190.89 C-311.84 190.89 -310.58 190.89 -309.28 190.89 C-307.89 190.89 -306.51 190.9 -305.12 190.9 C-303.71 190.9 -302.3 190.91 -300.89 190.91 C-297.17 190.91 -293.45 190.92 -289.73 190.93 C-285.93 190.94 -282.14 190.95 -278.35 190.95 C-270.9 190.96 -263.45 190.98 -256 191 C-256 190.21 -256 189.43 -256.01 188.62 C-256.03 181.21 -256.04 173.81 -256.05 166.41 C-256.06 162.6 -256.06 158.8 -256.08 154.99 C-256.09 151.32 -256.09 147.65 -256.09 143.98 C-256.1 142.58 -256.1 141.18 -256.11 139.77 C-256.11 137.81 -256.11 135.86 -256.11 133.9 C-256.12 132.78 -256.12 131.66 -256.12 130.51 C-256 128 -256 128 -255 127 C-253.36 126.9 -251.71 126.88 -250.06 126.88 C-248.99 126.88 -247.92 126.88 -246.82 126.88 C-245.63 126.88 -244.45 126.88 -243.23 126.89 C-241.37 126.89 -241.37 126.89 -239.47 126.89 C-236.07 126.89 -232.66 126.89 -229.25 126.9 C-225.7 126.9 -222.14 126.91 -218.58 126.91 C-211.84 126.91 -205.1 126.92 -198.36 126.93 C-190.69 126.94 -183.02 126.94 -175.35 126.95 C-159.57 126.96 -143.78 126.98 -128 127 C-128 126.21 -128 125.43 -128.01 124.62 C-128.03 117.21 -128.04 109.81 -128.05 102.41 C-128.06 98.6 -128.06 94.8 -128.08 90.99 C-128.09 87.32 -128.09 83.65 -128.09 79.98 C-128.1 78.58 -128.1 77.18 -128.11 75.77 C-128.11 73.81 -128.11 71.86 -128.11 69.9 C-128.12 68.78 -128.12 67.66 -128.12 66.51 C-128 64 -128 64 -127 63 C-125.36 62.9 -123.71 62.88 -122.06 62.88 C-120.99 62.88 -119.92 62.88 -118.82 62.88 C-117.63 62.88 -116.45 62.88 -115.23 62.89 C-113.99 62.89 -112.75 62.89 -111.47 62.89 C-108.07 62.89 -104.66 62.89 -101.25 62.9 C-97.7 62.9 -94.14 62.91 -90.58 62.91 C-83.84 62.91 -77.1 62.92 -70.36 62.93 C-61.26 62.94 -52.16 62.95 -43.05 62.95 C-28.7 62.96 -14.35 62.98 0 63 C0 42.21 0 21.42 0 0 Z M768 830 C767.67 830.66 767.34 831.32 767 832 C767.66 832 768.32 832 769 832 C768.67 831.34 768.34 830.68 768 830 Z M704 958 C703.67 958.66 703.34 959.32 703 960 C703.66 960 704.32 960 705 960 C704.67 959.34 704.34 958.68 704 958 Z M640 1086 C639.67 1086.66 639.34 1087.32 639 1088 C639.66 1088 640.32 1088 641 1088 C640.67 1087.34 640.34 1086.68 640 1086 Z M512 1150 C511.67 1150.66 511.34 1151.32 511 1152 C511.66 1152 512.32 1152 513 1152 C512.67 1151.34 512.34 1150.68 512 1150 Z M384 1214 C383.67 1214.66 383.34 1215.32 383 1216 C383.66 1216 384.32 1216 385 1216 C384.67 1215.34 384.34 1214.68 384 1214 Z " fill="#E81619" transform="translate(447,0)"/>
<path d="M0 0 C1.33 -0.01 1.33 -0.01 2.68 -0.02 C3.65 -0.01 4.62 -0 5.62 0.01 C6.65 0.01 7.69 0 8.75 0 C12.22 -0 15.7 0.01 19.17 0.03 C21.65 0.03 24.14 0.03 26.62 0.03 C31.97 0.03 37.33 0.04 42.68 0.05 C50.42 0.08 58.17 0.08 65.91 0.09 C78.47 0.09 91.03 0.11 103.59 0.14 C115.79 0.17 127.99 0.19 140.19 0.2 C140.95 0.21 141.7 0.21 142.47 0.21 C146.24 0.21 150.02 0.21 153.79 0.22 C185.09 0.25 216.39 0.3 247.7 0.37 C249.04 3.06 248.86 5.19 248.9 8.2 C248.92 9.42 248.94 10.64 248.96 11.9 C248.98 13.23 248.99 14.57 249.01 15.91 C249.03 17.27 249.05 18.64 249.07 20 C249.13 23.6 249.18 27.19 249.23 30.78 C249.28 34.45 249.33 38.12 249.39 41.78 C249.5 48.98 249.6 56.17 249.7 63.37 C253.01 64.37 256.02 64.49 259.47 64.48 C261.21 64.48 261.21 64.48 262.99 64.48 C264.24 64.48 265.49 64.47 266.77 64.47 C268.06 64.47 269.34 64.46 270.66 64.46 C274.06 64.46 277.46 64.45 280.86 64.44 C284.33 64.43 287.8 64.42 291.27 64.42 C298.08 64.41 304.89 64.39 311.7 64.37 C312.85 66.68 312.82 67.99 312.82 70.57 C312.82 71.45 312.82 72.34 312.82 73.25 C312.82 74.23 312.82 75.21 312.82 76.21 C312.82 77.25 312.82 78.28 312.82 79.35 C312.82 82.84 312.81 86.33 312.81 89.82 C312.81 92.31 312.81 94.81 312.81 97.3 C312.81 102.68 312.81 108.06 312.8 113.44 C312.79 121.21 312.79 128.99 312.79 136.76 C312.79 149.38 312.78 162 312.77 174.61 C312.76 186.87 312.75 199.13 312.75 211.39 C312.75 212.14 312.75 212.9 312.75 213.67 C312.75 217.46 312.75 221.25 312.75 225.04 C312.74 256.48 312.72 287.93 312.7 319.37 C314.58 319.61 314.58 319.61 316.5 319.86 C317.21 319.95 317.92 320.04 318.64 320.14 C321.35 320.44 324.02 320.49 326.74 320.48 C327.86 320.48 328.99 320.48 330.14 320.48 C331.32 320.48 332.51 320.47 333.73 320.47 C334.96 320.47 336.19 320.46 337.46 320.46 C341.37 320.46 345.28 320.44 349.2 320.43 C351.86 320.43 354.52 320.42 357.18 320.42 C363.68 320.41 370.19 320.39 376.7 320.37 C376.69 319.61 376.68 318.85 376.68 318.07 C376.62 310.94 376.57 303.8 376.54 296.66 C376.52 293 376.5 289.33 376.47 285.66 C376.44 282.12 376.42 278.58 376.41 275.04 C376.4 273.03 376.38 271.02 376.36 269.01 C376.36 267.79 376.35 266.57 376.35 265.31 C376.35 264.23 376.34 263.16 376.33 262.05 C376.7 259.37 376.7 259.37 377.89 257.72 C380.35 255.88 381.94 256 385 256 C386.11 255.99 387.21 255.99 388.35 255.98 C390.18 256 390.18 256 392.05 256.01 C393.35 256.01 394.64 256 395.97 256 C399.57 255.99 403.16 256.01 406.76 256.02 C410.63 256.03 414.51 256.03 418.38 256.03 C425.1 256.03 431.82 256.04 438.53 256.05 C448.25 256.08 457.96 256.08 467.67 256.09 C483.42 256.09 499.18 256.11 514.93 256.14 C530.24 256.17 545.54 256.19 560.85 256.2 C561.79 256.21 562.74 256.21 563.71 256.21 C568.44 256.21 573.17 256.21 577.9 256.22 C617.17 256.25 656.43 256.3 695.7 256.37 C696.95 258.88 696.82 260.58 696.82 263.39 C696.82 264.46 696.82 265.52 696.82 266.61 C696.82 267.79 696.81 268.96 696.81 270.16 C696.81 271.39 696.81 272.62 696.81 273.89 C696.81 277.26 696.8 280.64 696.8 284.01 C696.79 287.54 696.79 291.07 696.79 294.59 C696.79 301.27 696.78 307.95 696.77 314.63 C696.76 322.23 696.75 329.84 696.75 337.44 C696.74 353.08 696.72 368.73 696.7 384.37 C695.92 384.38 695.15 384.39 694.35 384.4 C687.06 384.5 679.78 384.6 672.5 384.71 C668.75 384.76 665.01 384.82 661.26 384.87 C657.65 384.91 654.04 384.97 650.43 385.02 C649.04 385.04 647.66 385.06 646.28 385.08 C644.36 385.1 642.43 385.13 640.5 385.16 C639.4 385.18 638.3 385.19 637.17 385.21 C634.75 385.09 634.75 385.09 633.7 386.37 C633.59 388 633.55 389.64 633.54 391.27 C633.53 392.33 633.52 393.4 633.51 394.49 C633.5 395.66 633.5 396.84 633.49 398.05 C633.48 399.89 633.48 399.89 633.46 401.77 C633.43 405.15 633.41 408.53 633.39 411.91 C633.37 415.44 633.34 418.97 633.32 422.5 C633.27 429.19 633.22 435.87 633.18 442.56 C633.13 450.17 633.07 457.78 633.02 465.39 C632.9 481.05 632.8 496.71 632.7 512.37 C631.92 512.38 631.15 512.39 630.35 512.4 C623.06 512.5 615.78 512.6 608.5 512.71 C604.75 512.76 601.01 512.82 597.26 512.87 C593.65 512.91 590.04 512.97 586.43 513.02 C585.04 513.04 583.66 513.06 582.28 513.08 C580.36 513.1 578.43 513.13 576.5 513.16 C575.4 513.18 574.3 513.19 573.17 513.21 C570.75 513.09 570.75 513.09 569.7 514.37 C569.59 516 569.55 517.64 569.54 519.27 C569.53 520.33 569.52 521.4 569.51 522.49 C569.5 523.66 569.5 524.84 569.49 526.05 C569.48 527.89 569.48 527.89 569.46 529.77 C569.43 533.15 569.41 536.53 569.39 539.91 C569.37 543.44 569.34 546.97 569.32 550.5 C569.27 557.19 569.22 563.87 569.18 570.56 C569.13 578.17 569.07 585.78 569.02 593.39 C568.9 609.05 568.8 624.71 568.7 640.37 C567.72 640.38 567.72 640.38 566.73 640.38 C550.97 640.49 535.22 640.59 519.46 640.71 C511.84 640.76 504.22 640.82 496.6 640.87 C489.96 640.91 483.33 640.96 476.69 641.01 C473.17 641.03 469.65 641.06 466.14 641.08 C462.22 641.1 458.3 641.13 454.38 641.16 C452.61 641.17 452.61 641.17 450.82 641.18 C449.75 641.19 448.69 641.2 447.6 641.21 C446.67 641.22 445.74 641.22 444.79 641.23 C442.71 641.14 442.71 641.14 441.7 642.37 C441.57 644.3 441.52 646.24 441.49 648.17 C441.47 649.42 441.45 650.66 441.43 651.94 C441.41 653.3 441.4 654.66 441.38 656.03 C441.36 657.42 441.34 658.81 441.32 660.2 C441.26 663.86 441.21 667.52 441.16 671.18 C441.11 674.91 441.06 678.65 441 682.38 C440.89 689.71 440.79 697.04 440.7 704.37 C439.72 704.38 439.72 704.38 438.73 704.38 C422.97 704.49 407.22 704.59 391.46 704.71 C383.84 704.76 376.22 704.82 368.6 704.87 C361.96 704.91 355.33 704.96 348.69 705.01 C345.17 705.03 341.65 705.06 338.14 705.08 C334.22 705.1 330.3 705.13 326.38 705.16 C324.61 705.17 324.61 705.17 322.82 705.18 C321.75 705.19 320.69 705.2 319.6 705.21 C318.67 705.22 317.74 705.22 316.79 705.23 C314.71 705.14 314.71 705.14 313.7 706.37 C313.57 708.3 313.52 710.24 313.49 712.17 C313.47 713.42 313.45 714.66 313.43 715.94 C313.41 717.3 313.4 718.66 313.38 720.03 C313.36 721.42 313.34 722.81 313.32 724.2 C313.26 727.86 313.21 731.52 313.16 735.18 C313.11 738.91 313.06 742.65 313 746.38 C312.89 753.71 312.79 761.04 312.7 768.37 C264.06 768.41 215.43 768.45 166.8 768.47 C161.07 768.47 155.33 768.48 149.6 768.48 C148.46 768.48 147.31 768.48 146.14 768.48 C127.62 768.49 109.11 768.51 90.6 768.52 C71.62 768.54 52.64 768.55 33.65 768.56 C21.93 768.56 10.21 768.57 -1.51 768.58 C-9.54 768.6 -17.57 768.6 -25.59 768.6 C-30.23 768.59 -34.87 768.6 -39.51 768.61 C-43.75 768.62 -47.99 768.62 -52.23 768.61 C-53.77 768.61 -55.31 768.61 -56.85 768.62 C-58.93 768.63 -61.01 768.62 -63.09 768.62 C-64.25 768.62 -65.41 768.62 -66.61 768.62 C-69.3 768.37 -69.3 768.37 -71.3 766.37 C-71.54 763.86 -71.54 763.86 -71.52 760.65 C-71.51 759.45 -71.51 758.25 -71.51 757.02 C-71.49 755.72 -71.48 754.42 -71.46 753.08 C-71.46 751.74 -71.45 750.4 -71.45 749.06 C-71.44 745.53 -71.41 742.01 -71.38 738.48 C-71.34 732.82 -71.31 727.17 -71.29 721.52 C-71.28 719.54 -71.26 717.56 -71.24 715.58 C-71.24 714.38 -71.23 713.19 -71.22 711.96 C-71.21 710.9 -71.21 709.84 -71.2 708.75 C-71.03 706.41 -71.03 706.41 -72.3 705.37 C-73.92 705.27 -75.54 705.23 -77.16 705.22 C-78.21 705.22 -79.26 705.21 -80.34 705.2 C-81.5 705.2 -82.66 705.2 -83.86 705.2 C-85.08 705.19 -86.29 705.18 -87.55 705.18 C-90.2 705.16 -92.85 705.15 -95.5 705.14 C-99.69 705.12 -103.88 705.1 -108.06 705.07 C-119.98 705 -131.89 704.94 -143.8 704.89 C-150.38 704.86 -156.95 704.83 -163.53 704.79 C-167.69 704.76 -171.86 704.74 -176.03 704.73 C-179.23 704.72 -182.42 704.69 -185.62 704.67 C-186.78 704.67 -187.94 704.67 -189.13 704.67 C-190.19 704.66 -191.24 704.65 -192.33 704.64 C-193.24 704.64 -194.16 704.63 -195.11 704.63 C-197.3 704.37 -197.3 704.37 -199.3 702.37 C-199.54 699.86 -199.54 699.86 -199.52 696.65 C-199.51 695.45 -199.51 694.25 -199.51 693.02 C-199.49 691.72 -199.48 690.42 -199.46 689.08 C-199.46 687.74 -199.45 686.4 -199.45 685.06 C-199.44 681.53 -199.41 678.01 -199.38 674.48 C-199.34 668.82 -199.31 663.17 -199.29 657.52 C-199.28 655.54 -199.26 653.56 -199.24 651.58 C-199.24 650.38 -199.23 649.19 -199.22 647.96 C-199.21 646.9 -199.21 645.84 -199.2 644.75 C-199.03 642.41 -199.03 642.41 -200.3 641.37 C-201.92 641.27 -203.54 641.23 -205.16 641.22 C-206.21 641.22 -207.26 641.21 -208.34 641.2 C-209.5 641.2 -210.66 641.2 -211.86 641.2 C-213.08 641.19 -214.29 641.18 -215.55 641.18 C-218.2 641.16 -220.85 641.15 -223.5 641.14 C-227.69 641.12 -231.88 641.1 -236.06 641.07 C-247.98 641 -259.89 640.94 -271.8 640.89 C-278.38 640.86 -284.95 640.83 -291.53 640.79 C-295.69 640.76 -299.86 640.74 -304.03 640.73 C-307.23 640.72 -310.42 640.69 -313.62 640.67 C-314.78 640.67 -315.94 640.67 -317.13 640.67 C-318.19 640.66 -319.24 640.65 -320.33 640.64 C-321.24 640.64 -322.16 640.63 -323.11 640.63 C-325.3 640.37 -325.3 640.37 -327.3 638.37 C-327.55 636.19 -327.55 636.19 -327.54 633.43 C-327.54 632.38 -327.54 631.34 -327.54 630.26 C-327.53 628.54 -327.53 628.54 -327.52 626.78 C-327.51 625.57 -327.51 624.36 -327.51 623.11 C-327.51 620.48 -327.5 617.85 -327.49 615.22 C-327.46 611.07 -327.46 606.91 -327.45 602.76 C-327.44 596.19 -327.42 589.62 -327.39 583.05 C-327.35 571.28 -327.31 559.51 -327.29 547.74 C-327.28 543.61 -327.27 539.47 -327.25 535.34 C-327.24 532.17 -327.23 529 -327.22 525.83 C-327.22 524.68 -327.21 523.53 -327.2 522.34 C-327.2 520.78 -327.2 520.78 -327.2 519.18 C-327.19 518.27 -327.19 517.36 -327.19 516.42 C-327.08 514.38 -327.08 514.38 -328.3 513.37 C-330.2 513.26 -332.09 513.21 -333.99 513.2 C-335.2 513.18 -336.42 513.17 -337.67 513.15 C-338.65 513.15 -338.65 513.15 -339.65 513.14 C-341.68 513.12 -343.72 513.1 -345.76 513.07 C-351.56 513 -357.35 512.94 -363.15 512.89 C-366.69 512.86 -370.23 512.82 -373.77 512.77 C-375.12 512.76 -376.47 512.74 -377.83 512.74 C-379.72 512.72 -381.6 512.7 -383.49 512.67 C-384.57 512.66 -385.65 512.65 -386.76 512.64 C-389.3 512.37 -389.3 512.37 -391.3 510.37 C-391.55 508.19 -391.55 508.19 -391.54 505.43 C-391.54 504.38 -391.54 503.34 -391.54 502.26 C-391.53 501.11 -391.52 499.96 -391.52 498.78 C-391.51 497.57 -391.51 496.36 -391.51 495.11 C-391.51 492.48 -391.5 489.85 -391.49 487.22 C-391.46 483.07 -391.46 478.91 -391.45 474.76 C-391.44 468.19 -391.42 461.62 -391.39 455.05 C-391.35 443.28 -391.31 431.51 -391.29 419.74 C-391.28 415.61 -391.27 411.47 -391.25 407.34 C-391.24 404.17 -391.23 401 -391.22 397.83 C-391.21 396.1 -391.21 396.1 -391.2 394.34 C-391.2 392.78 -391.2 392.78 -391.2 391.18 C-391.19 389.82 -391.19 389.82 -391.19 388.42 C-391.08 386.38 -391.08 386.38 -392.3 385.37 C-394.2 385.26 -396.09 385.21 -397.99 385.2 C-399.2 385.18 -400.42 385.17 -401.67 385.15 C-402.65 385.15 -402.65 385.15 -403.65 385.14 C-405.68 385.12 -407.72 385.1 -409.76 385.07 C-415.56 385 -421.35 384.94 -427.15 384.89 C-430.69 384.86 -434.23 384.82 -437.77 384.77 C-439.12 384.76 -440.47 384.74 -441.83 384.74 C-443.72 384.72 -445.6 384.7 -447.49 384.67 C-448.57 384.66 -449.65 384.65 -450.76 384.64 C-453.3 384.37 -453.3 384.37 -455.3 382.37 C-455.56 380.21 -455.56 380.21 -455.57 377.48 C-455.58 375.93 -455.58 375.93 -455.59 374.35 C-455.58 373.21 -455.58 372.07 -455.58 370.9 C-455.58 369.7 -455.59 368.51 -455.59 367.28 C-455.61 363.99 -455.61 360.71 -455.61 357.43 C-455.61 354.69 -455.61 351.95 -455.61 349.21 C-455.63 342.75 -455.63 336.29 -455.62 329.83 C-455.61 323.16 -455.63 316.49 -455.65 309.83 C-455.67 304.1 -455.67 298.38 -455.67 292.66 C-455.67 289.24 -455.67 285.82 -455.68 282.4 C-455.7 278.59 -455.69 274.78 -455.68 270.97 C-455.68 269.83 -455.69 268.7 -455.7 267.53 C-455.69 265.97 -455.69 265.97 -455.68 264.39 C-455.68 263.48 -455.68 262.58 -455.68 261.65 C-455.21 258.81 -454.58 258.1 -452.3 256.37 C-449.91 256 -449.91 256 -447 256 C-445.89 255.99 -444.79 255.99 -443.65 255.98 C-441.82 256 -441.82 256 -439.95 256.01 C-438.65 256.01 -437.36 256 -436.03 256 C-432.43 255.99 -428.84 256.01 -425.24 256.02 C-421.37 256.03 -417.49 256.03 -413.62 256.03 C-406.9 256.03 -400.18 256.04 -393.47 256.05 C-383.75 256.08 -374.04 256.08 -364.33 256.09 C-348.58 256.09 -332.82 256.11 -317.07 256.14 C-301.76 256.17 -286.46 256.19 -271.15 256.2 C-270.21 256.21 -269.26 256.21 -268.29 256.21 C-263.56 256.21 -258.83 256.21 -254.1 256.22 C-214.83 256.25 -175.57 256.3 -136.3 256.37 C-134.96 259.06 -135.14 261.19 -135.1 264.2 C-135.08 265.42 -135.06 266.64 -135.04 267.9 C-135.02 269.23 -135.01 270.57 -134.99 271.91 C-134.97 273.27 -134.95 274.64 -134.93 276 C-134.87 279.6 -134.82 283.19 -134.77 286.78 C-134.72 290.45 -134.67 294.12 -134.61 297.78 C-134.5 304.98 -134.4 312.17 -134.3 319.37 C-130.99 320.37 -127.98 320.49 -124.53 320.48 C-122.79 320.48 -122.79 320.48 -121.01 320.48 C-119.76 320.48 -118.51 320.47 -117.23 320.47 C-115.94 320.47 -114.66 320.46 -113.34 320.46 C-109.94 320.46 -106.54 320.45 -103.14 320.44 C-99.67 320.43 -96.2 320.42 -92.73 320.42 C-85.92 320.41 -79.11 320.39 -72.3 320.37 C-70.96 323.06 -71.14 325.19 -71.1 328.2 C-71.08 329.42 -71.06 330.64 -71.04 331.9 C-71.02 333.23 -71.01 334.57 -70.99 335.91 C-70.97 337.27 -70.95 338.64 -70.93 340 C-70.87 343.6 -70.82 347.19 -70.77 350.78 C-70.72 354.45 -70.67 358.12 -70.61 361.78 C-70.5 368.98 -70.4 376.17 -70.3 383.37 C-66.99 384.37 -63.98 384.49 -60.53 384.48 C-58.79 384.48 -58.79 384.48 -57.01 384.48 C-55.76 384.48 -54.51 384.47 -53.23 384.47 C-51.94 384.47 -50.66 384.46 -49.34 384.46 C-45.94 384.46 -42.54 384.45 -39.14 384.44 C-35.67 384.43 -32.2 384.42 -28.73 384.42 C-21.92 384.41 -15.11 384.39 -8.3 384.37 C-6.96 387.06 -7.14 389.19 -7.1 392.2 C-7.08 393.42 -7.06 394.64 -7.04 395.9 C-7.02 397.23 -7.01 398.57 -6.99 399.91 C-6.97 401.27 -6.95 402.64 -6.93 404 C-6.87 407.6 -6.82 411.19 -6.77 414.78 C-6.72 418.45 -6.67 422.12 -6.61 425.78 C-6.5 432.98 -6.4 440.17 -6.3 447.37 C-3.43 448.19 -0.88 448.49 2.11 448.49 C2.99 448.49 3.87 448.5 4.78 448.5 C6.23 448.49 6.23 448.49 7.71 448.49 C8.73 448.49 9.76 448.49 10.82 448.49 C14.28 448.49 17.73 448.49 21.19 448.48 C23.66 448.48 26.14 448.48 28.61 448.48 C33.94 448.48 39.27 448.48 44.6 448.47 C52.31 448.47 60.02 448.46 67.72 448.46 C80.23 448.46 92.73 448.45 105.24 448.44 C117.38 448.44 129.53 448.43 141.68 448.42 C142.8 448.42 142.8 448.42 143.94 448.42 C147.7 448.42 151.46 448.42 155.21 448.42 C186.37 448.41 217.53 448.39 248.7 448.37 C248.72 441.34 248.74 434.32 248.75 427.29 C248.76 424.91 248.76 422.52 248.77 420.14 C248.78 416.69 248.79 413.24 248.79 409.79 C248.8 408.75 248.8 407.7 248.81 406.62 C248.81 399.16 248.36 391.8 247.7 384.37 C245.74 384.37 245.74 384.37 243.75 384.37 C212.87 384.39 181.99 384.41 151.11 384.42 C147.31 384.42 143.51 384.42 139.71 384.42 C138.58 384.42 138.58 384.42 137.42 384.42 C125.16 384.43 112.91 384.44 100.65 384.45 C88.08 384.46 75.52 384.46 62.95 384.46 C55.19 384.46 47.43 384.47 39.67 384.48 C33.73 384.48 27.78 384.48 21.84 384.48 C19.4 384.48 16.95 384.48 14.51 384.49 C11.19 384.49 7.86 384.49 4.54 384.49 C3.56 384.49 2.58 384.5 1.58 384.5 C0.69 384.5 -0.2 384.49 -1.11 384.49 C-2.26 384.49 -2.26 384.49 -3.43 384.49 C-5.3 384.37 -5.3 384.37 -7.3 383.37 C-7.3 382.61 -7.3 381.85 -7.3 381.06 C-7.28 373.89 -7.26 366.73 -7.25 359.56 C-7.25 355.88 -7.24 352.19 -7.23 348.51 C-7.22 344.95 -7.21 341.4 -7.21 337.85 C-7.21 336.49 -7.2 335.13 -7.2 333.77 C-7.19 331.88 -7.19 329.98 -7.19 328.08 C-7.19 327 -7.19 325.92 -7.18 324.81 C-7.03 322.42 -7.03 322.42 -8.3 321.37 C-10.2 321.25 -12.09 321.2 -13.99 321.18 C-15.2 321.16 -16.42 321.15 -17.67 321.13 C-18.65 321.12 -18.65 321.12 -19.65 321.11 C-21.68 321.09 -23.72 321.06 -25.76 321.03 C-30.09 320.97 -34.41 320.92 -38.74 320.87 C-43.75 320.81 -48.76 320.75 -53.77 320.68 C-55.78 320.65 -57.79 320.63 -59.8 320.61 C-61.02 320.59 -62.24 320.58 -63.49 320.56 C-64.57 320.55 -65.65 320.53 -66.76 320.52 C-69.3 320.37 -69.3 320.37 -71.3 319.37 C-71.37 287.32 -71.43 255.26 -71.46 223.21 C-71.46 219.43 -71.47 215.65 -71.47 211.87 C-71.47 211.12 -71.47 210.36 -71.47 209.59 C-71.48 197.39 -71.51 185.19 -71.54 172.99 C-71.56 160.47 -71.58 147.96 -71.59 135.45 C-71.59 127.72 -71.6 120 -71.63 112.27 C-71.65 106.36 -71.65 100.44 -71.64 94.52 C-71.64 92.09 -71.65 89.66 -71.66 87.23 C-71.68 83.92 -71.67 80.61 -71.67 77.3 C-71.67 76.33 -71.68 75.35 -71.69 74.35 C-71.69 73.47 -71.68 72.58 -71.67 71.67 C-71.68 70.53 -71.68 70.53 -71.68 69.36 C-71.2 66.81 -70.34 65.92 -68.3 64.37 C-65.63 64.01 -65.63 64.01 -62.36 64.03 C-61.14 64.03 -59.92 64.03 -58.66 64.03 C-56.69 64.05 -56.69 64.05 -54.67 64.08 C-53.3 64.08 -51.94 64.09 -50.58 64.09 C-46.99 64.1 -43.41 64.13 -39.82 64.16 C-36.16 64.19 -32.5 64.21 -28.84 64.22 C-21.66 64.25 -14.48 64.31 -7.3 64.37 C-7.31 63.23 -7.31 63.23 -7.32 62.07 C-7.38 54.94 -7.43 47.8 -7.46 40.66 C-7.48 37 -7.5 33.33 -7.53 29.66 C-7.56 26.12 -7.58 22.58 -7.59 19.04 C-7.6 17.03 -7.62 15.02 -7.64 13.01 C-7.64 11.79 -7.65 10.57 -7.65 9.31 C-7.66 7.69 -7.66 7.69 -7.67 6.05 C-7.02 1.28 -4.59 -0.01 0 0 Z " fill="#FCFCFC" transform="translate(518.3047208786011,446.63085651397705)"/>
<path d="M0 0 C127.38 0 254.76 0 386 0 C386 20.79 386 41.58 386 63 C395.16 62.99 404.31 62.98 413.75 62.96 C419.53 62.96 425.31 62.95 431.1 62.95 C440.29 62.95 449.47 62.94 458.66 62.92 C465.36 62.91 472.05 62.91 478.74 62.91 C482.28 62.9 485.83 62.9 489.37 62.89 C493.33 62.89 497.28 62.89 501.23 62.89 C502.41 62.88 503.6 62.88 504.82 62.88 C505.89 62.88 506.96 62.88 508.06 62.88 C508.99 62.88 509.93 62.88 510.89 62.88 C513 63 513 63 514 64 C514.09 65.96 514.12 67.93 514.11 69.9 C514.11 71.16 514.11 72.42 514.11 73.72 C514.11 75.11 514.1 76.49 514.1 77.88 C514.1 79.29 514.09 80.7 514.09 82.11 C514.09 85.83 514.08 89.55 514.07 93.27 C514.06 97.07 514.05 100.86 514.05 104.65 C514.04 112.1 514.02 119.55 514 127 C514.65 127 515.31 127 515.98 127 C531.86 126.98 547.74 126.96 563.62 126.95 C571.3 126.94 578.98 126.94 586.66 126.92 C593.36 126.91 600.05 126.91 606.74 126.91 C610.28 126.9 613.83 126.9 617.37 126.89 C621.33 126.89 625.28 126.89 629.23 126.89 C630.41 126.88 631.6 126.88 632.82 126.88 C633.89 126.88 634.96 126.88 636.06 126.88 C636.99 126.88 637.93 126.88 638.89 126.88 C641 127 641 127 642 128 C642.09 129.96 642.12 131.93 642.11 133.9 C642.11 135.79 642.11 135.79 642.11 137.72 C642.11 139.11 642.1 140.49 642.1 141.88 C642.1 143.29 642.09 144.7 642.09 146.11 C642.09 149.83 642.08 153.55 642.07 157.27 C642.06 161.07 642.05 164.86 642.05 168.65 C642.04 176.1 642.02 183.55 642 191 C642.79 191 643.57 191 644.38 190.99 C651.79 190.97 659.19 190.96 666.59 190.95 C670.4 190.94 674.2 190.94 678.01 190.92 C681.68 190.91 685.35 190.91 689.02 190.91 C690.42 190.9 691.82 190.9 693.23 190.89 C695.19 190.89 697.14 190.89 699.1 190.89 C700.78 190.88 700.78 190.88 702.49 190.88 C705 191 705 191 706 192 C706.1 193.64 706.12 195.29 706.12 196.94 C706.12 198.01 706.12 199.08 706.12 200.18 C706.12 201.37 706.12 202.55 706.11 203.77 C706.11 205.01 706.11 206.25 706.11 207.53 C706.11 210.93 706.11 214.34 706.1 217.75 C706.1 221.3 706.09 224.86 706.09 228.42 C706.09 235.16 706.08 241.9 706.07 248.64 C706.06 256.31 706.06 263.98 706.05 271.65 C706.04 287.43 706.02 303.22 706 319 C706.79 319 707.57 319 708.38 318.99 C715.79 318.97 723.19 318.96 730.59 318.95 C734.4 318.94 738.2 318.94 742.01 318.92 C745.68 318.91 749.35 318.91 753.02 318.91 C754.42 318.9 755.82 318.9 757.23 318.89 C759.19 318.89 761.14 318.89 763.1 318.89 C764.22 318.88 765.34 318.88 766.49 318.88 C769 319 769 319 770 320 C770.1 321.64 770.12 323.29 770.12 324.94 C770.12 326.01 770.12 327.08 770.12 328.18 C770.12 329.37 770.12 330.55 770.11 331.77 C770.11 333.01 770.11 334.25 770.11 335.53 C770.11 338.93 770.11 342.34 770.1 345.75 C770.1 349.3 770.09 352.86 770.09 356.42 C770.09 363.16 770.08 369.9 770.07 376.64 C770.06 385.74 770.05 394.84 770.05 403.95 C770.04 418.3 770.02 432.65 770 447 C790.79 447 811.58 447 833 447 C833 574.38 833 701.76 833 833 C812.21 833 791.42 833 770 833 C770.01 842.16 770.02 851.31 770.04 860.75 C770.04 866.53 770.05 872.31 770.05 878.1 C770.05 887.29 770.06 896.47 770.08 905.66 C770.09 912.36 770.09 919.05 770.09 925.74 C770.1 929.28 770.1 932.83 770.11 936.37 C770.11 940.33 770.11 944.28 770.11 948.23 C770.12 949.41 770.12 950.6 770.12 951.82 C770.12 953.42 770.12 953.42 770.12 955.06 C770.12 955.99 770.12 956.93 770.12 957.89 C770 960 770 960 769 961 C767.04 961.09 765.07 961.12 763.1 961.11 C761.84 961.11 760.58 961.11 759.28 961.11 C757.89 961.11 756.51 961.1 755.12 961.1 C753.71 961.1 752.3 961.09 750.89 961.09 C747.17 961.09 743.45 961.08 739.73 961.07 C735.93 961.06 732.14 961.05 728.35 961.05 C720.9 961.04 713.45 961.02 706 961 C706 961.65 706 962.31 706 962.98 C706.02 978.86 706.04 994.74 706.05 1010.62 C706.06 1018.3 706.06 1025.98 706.08 1033.66 C706.09 1040.36 706.09 1047.05 706.09 1053.74 C706.1 1057.28 706.1 1060.83 706.11 1064.37 C706.11 1068.33 706.11 1072.28 706.11 1076.23 C706.12 1077.41 706.12 1078.6 706.12 1079.82 C706.12 1081.42 706.12 1081.42 706.12 1083.06 C706.12 1083.99 706.12 1084.93 706.12 1085.89 C706 1088 706 1088 705 1089 C703.04 1089.09 701.07 1089.12 699.1 1089.11 C697.84 1089.11 696.58 1089.11 695.28 1089.11 C693.89 1089.11 692.51 1089.1 691.12 1089.1 C689.71 1089.1 688.3 1089.09 686.89 1089.09 C683.17 1089.09 679.45 1089.08 675.73 1089.07 C671.93 1089.06 668.14 1089.05 664.35 1089.05 C656.9 1089.04 649.45 1089.02 642 1089 C642 1089.79 642 1090.57 642.01 1091.38 C642.03 1098.79 642.04 1106.19 642.05 1113.59 C642.06 1117.4 642.06 1121.2 642.08 1125.01 C642.09 1128.68 642.09 1132.35 642.09 1136.02 C642.1 1137.42 642.1 1138.82 642.11 1140.23 C642.11 1142.19 642.11 1144.14 642.11 1146.1 C642.12 1147.22 642.12 1148.34 642.12 1149.49 C642 1152 642 1152 641 1153 C639.36 1153.1 637.71 1153.12 636.06 1153.12 C634.99 1153.12 633.92 1153.12 632.82 1153.12 C631.63 1153.12 630.45 1153.12 629.23 1153.11 C627.37 1153.11 627.37 1153.11 625.47 1153.11 C622.07 1153.11 618.66 1153.11 615.25 1153.1 C611.7 1153.1 608.14 1153.09 604.58 1153.09 C597.84 1153.09 591.1 1153.08 584.36 1153.07 C576.69 1153.06 569.02 1153.06 561.35 1153.05 C545.57 1153.04 529.78 1153.02 514 1153 C514 1153.79 514 1154.57 514.01 1155.38 C514.03 1162.79 514.04 1170.19 514.05 1177.59 C514.06 1181.4 514.06 1185.2 514.08 1189.01 C514.09 1192.68 514.09 1196.35 514.09 1200.02 C514.1 1201.42 514.1 1202.82 514.11 1204.23 C514.11 1206.19 514.11 1208.14 514.11 1210.1 C514.12 1211.22 514.12 1212.34 514.12 1213.49 C514 1216 514 1216 513 1217 C511.36 1217.1 509.71 1217.12 508.06 1217.12 C506.99 1217.12 505.92 1217.12 504.82 1217.12 C503.63 1217.12 502.45 1217.12 501.23 1217.11 C499.37 1217.11 499.37 1217.11 497.47 1217.11 C494.07 1217.11 490.66 1217.11 487.25 1217.1 C483.7 1217.1 480.14 1217.09 476.58 1217.09 C469.84 1217.09 463.1 1217.08 456.36 1217.07 C447.26 1217.06 438.16 1217.05 429.05 1217.05 C414.7 1217.04 400.35 1217.02 386 1217 C386 1237.79 386 1258.58 386 1280 C258.62 1280 131.24 1280 0 1280 C0 1259.21 0 1238.42 0 1217 C-13.73 1217.02 -13.73 1217.02 -27.75 1217.04 C-33.53 1217.04 -39.31 1217.05 -45.1 1217.05 C-54.29 1217.05 -63.47 1217.06 -72.66 1217.08 C-79.36 1217.09 -86.05 1217.09 -92.74 1217.09 C-96.28 1217.1 -99.83 1217.1 -103.37 1217.11 C-107.33 1217.11 -111.28 1217.11 -115.23 1217.11 C-116.41 1217.12 -117.6 1217.12 -118.82 1217.12 C-119.89 1217.12 -120.96 1217.12 -122.06 1217.12 C-122.99 1217.12 -123.93 1217.12 -124.89 1217.12 C-127 1217 -127 1217 -128 1216 C-128.09 1214.04 -128.12 1212.07 -128.11 1210.1 C-128.11 1208.84 -128.11 1207.58 -128.11 1206.28 C-128.11 1204.89 -128.1 1203.51 -128.1 1202.12 C-128.1 1200.71 -128.09 1199.3 -128.09 1197.89 C-128.09 1194.17 -128.08 1190.45 -128.07 1186.73 C-128.06 1182.93 -128.05 1179.14 -128.05 1175.35 C-128.04 1167.9 -128.02 1160.45 -128 1153 C-128.65 1153 -129.31 1153 -129.98 1153 C-145.86 1153.02 -161.74 1153.04 -177.62 1153.05 C-185.3 1153.06 -192.98 1153.06 -200.66 1153.08 C-207.36 1153.09 -214.05 1153.09 -220.74 1153.09 C-224.28 1153.1 -227.83 1153.1 -231.37 1153.11 C-235.33 1153.11 -239.28 1153.11 -243.23 1153.11 C-244.41 1153.12 -245.6 1153.12 -246.82 1153.12 C-247.89 1153.12 -248.96 1153.12 -250.06 1153.12 C-250.99 1153.12 -251.93 1153.12 -252.89 1153.12 C-255 1153 -255 1153 -256 1152 C-256.09 1150.04 -256.12 1148.07 -256.11 1146.1 C-256.11 1144.84 -256.11 1143.58 -256.11 1142.28 C-256.11 1140.89 -256.1 1139.51 -256.1 1138.12 C-256.1 1136.71 -256.09 1135.3 -256.09 1133.89 C-256.09 1130.17 -256.08 1126.45 -256.07 1122.73 C-256.06 1118.93 -256.05 1115.14 -256.05 1111.35 C-256.04 1103.9 -256.02 1096.45 -256 1089 C-256.79 1089 -257.57 1089 -258.38 1089.01 C-265.79 1089.03 -273.19 1089.04 -280.59 1089.05 C-284.4 1089.06 -288.2 1089.06 -292.01 1089.08 C-295.68 1089.09 -299.35 1089.09 -303.02 1089.09 C-304.42 1089.1 -305.82 1089.1 -307.23 1089.11 C-309.19 1089.11 -311.14 1089.11 -313.1 1089.11 C-314.22 1089.12 -315.34 1089.12 -316.49 1089.12 C-319 1089 -319 1089 -320 1088 C-320.1 1086.36 -320.12 1084.71 -320.12 1083.06 C-320.12 1081.45 -320.12 1081.45 -320.12 1079.82 C-320.12 1078.04 -320.12 1078.04 -320.11 1076.23 C-320.11 1074.99 -320.11 1073.75 -320.11 1072.47 C-320.11 1069.07 -320.11 1065.66 -320.1 1062.25 C-320.1 1058.7 -320.09 1055.14 -320.09 1051.58 C-320.09 1044.84 -320.08 1038.1 -320.07 1031.36 C-320.06 1023.69 -320.06 1016.02 -320.05 1008.35 C-320.04 992.57 -320.02 976.78 -320 961 C-320.79 961 -321.57 961 -322.38 961.01 C-329.79 961.03 -337.19 961.04 -344.59 961.05 C-348.4 961.06 -352.2 961.06 -356.01 961.08 C-359.68 961.09 -363.35 961.09 -367.02 961.09 C-368.42 961.1 -369.82 961.1 -371.23 961.11 C-373.19 961.11 -375.14 961.11 -377.1 961.11 C-378.22 961.12 -379.34 961.12 -380.49 961.12 C-383 961 -383 961 -384 960 C-384.1 958.36 -384.12 956.71 -384.12 955.06 C-384.12 953.99 -384.12 952.92 -384.12 951.82 C-384.12 950.04 -384.12 950.04 -384.11 948.23 C-384.11 946.99 -384.11 945.75 -384.11 944.47 C-384.11 941.07 -384.11 937.66 -384.1 934.25 C-384.1 930.7 -384.09 927.14 -384.09 923.58 C-384.09 916.84 -384.08 910.1 -384.07 903.36 C-384.06 894.26 -384.05 885.16 -384.05 876.05 C-384.04 861.7 -384.02 847.35 -384 833 C-404.79 833 -425.58 833 -447 833 C-447 705.62 -447 578.24 -447 447 C-426.21 447 -405.42 447 -384 447 C-384.01 437.84 -384.02 428.69 -384.04 419.25 C-384.04 413.47 -384.05 407.69 -384.05 401.9 C-384.05 392.71 -384.06 383.53 -384.08 374.34 C-384.09 367.64 -384.09 360.95 -384.09 354.26 C-384.1 350.72 -384.1 347.17 -384.11 343.63 C-384.11 339.67 -384.11 335.72 -384.11 331.77 C-384.12 330.59 -384.12 329.4 -384.12 328.18 C-384.12 327.11 -384.12 326.04 -384.12 324.94 C-384.12 324.01 -384.12 323.07 -384.12 322.11 C-384 320 -384 320 -383 319 C-381.04 318.91 -379.07 318.88 -377.1 318.89 C-375.84 318.89 -374.58 318.89 -373.28 318.89 C-371.89 318.89 -370.51 318.9 -369.12 318.9 C-367.71 318.9 -366.3 318.91 -364.89 318.91 C-361.17 318.91 -357.45 318.92 -353.73 318.93 C-349.93 318.94 -346.14 318.95 -342.35 318.95 C-334.9 318.96 -327.45 318.98 -320 319 C-320 318.35 -320 317.69 -320 317.02 C-320.02 301.14 -320.04 285.26 -320.05 269.38 C-320.06 261.7 -320.06 254.02 -320.08 246.34 C-320.09 239.64 -320.09 232.95 -320.09 226.26 C-320.1 222.72 -320.1 219.17 -320.11 215.63 C-320.11 211.67 -320.11 207.72 -320.11 203.77 C-320.12 202.59 -320.12 201.4 -320.12 200.18 C-320.12 199.11 -320.12 198.04 -320.12 196.94 C-320.12 196.01 -320.12 195.07 -320.12 194.11 C-320 192 -320 192 -319 191 C-317.04 190.91 -315.07 190.88 -313.1 190.89 C-311.84 190.89 -310.58 190.89 -309.28 190.89 C-307.89 190.89 -306.51 190.9 -305.12 190.9 C-303.71 190.9 -302.3 190.91 -300.89 190.91 C-297.17 190.91 -293.45 190.92 -289.73 190.93 C-285.93 190.94 -282.14 190.95 -278.35 190.95 C-270.9 190.96 -263.45 190.98 -256 191 C-256 190.21 -256 189.43 -256.01 188.62 C-256.03 181.21 -256.04 173.81 -256.05 166.41 C-256.06 162.6 -256.06 158.8 -256.08 154.99 C-256.09 151.32 -256.09 147.65 -256.09 143.98 C-256.1 142.58 -256.1 141.18 -256.11 139.77 C-256.11 137.81 -256.11 135.86 -256.11 133.9 C-256.12 132.78 -256.12 131.66 -256.12 130.51 C-256 128 -256 128 -255 127 C-253.36 126.9 -251.71 126.88 -250.06 126.88 C-248.99 126.88 -247.92 126.88 -246.82 126.88 C-245.63 126.88 -244.45 126.88 -243.23 126.89 C-241.37 126.89 -241.37 126.89 -239.47 126.89 C-236.07 126.89 -232.66 126.89 -229.25 126.9 C-225.7 126.9 -222.14 126.91 -218.58 126.91 C-211.84 126.91 -205.1 126.92 -198.36 126.93 C-190.69 126.94 -183.02 126.94 -175.35 126.95 C-159.57 126.96 -143.78 126.98 -128 127 C-128 126.21 -128 125.43 -128.01 124.62 C-128.03 117.21 -128.04 109.81 -128.05 102.41 C-128.06 98.6 -128.06 94.8 -128.08 90.99 C-128.09 87.32 -128.09 83.65 -128.09 79.98 C-128.1 78.58 -128.1 77.18 -128.11 75.77 C-128.11 73.81 -128.11 71.86 -128.11 69.9 C-128.12 68.78 -128.12 67.66 -128.12 66.51 C-128 64 -128 64 -127 63 C-125.36 62.9 -123.71 62.88 -122.06 62.88 C-120.99 62.88 -119.92 62.88 -118.82 62.88 C-117.63 62.88 -116.45 62.88 -115.23 62.89 C-113.99 62.89 -112.75 62.89 -111.47 62.89 C-108.07 62.89 -104.66 62.89 -101.25 62.9 C-97.7 62.9 -94.14 62.91 -90.58 62.91 C-83.84 62.91 -77.1 62.92 -70.36 62.93 C-61.26 62.94 -52.16 62.95 -43.05 62.95 C-28.7 62.96 -14.35 62.98 0 63 C0 42.21 0 21.42 0 0 Z M1 64 C0.67 84.79 0.34 105.58 0 127 C-9 126.99 -18 126.98 -27.27 126.96 C-33.68 126.96 -40.09 126.95 -46.5 126.95 C-54.82 126.94 -63.13 126.94 -71.44 126.92 C-78.02 126.91 -84.6 126.91 -91.18 126.91 C-94.67 126.9 -98.15 126.9 -101.64 126.89 C-105.53 126.89 -109.41 126.89 -113.3 126.89 C-114.46 126.88 -115.62 126.88 -116.82 126.88 C-117.87 126.88 -118.93 126.88 -120.01 126.88 C-121.39 126.88 -121.39 126.88 -122.8 126.88 C-125.04 126.86 -125.04 126.86 -127 128 C-127 149.12 -127 170.24 -127 192 C-136.07 191.92 -145.14 191.83 -154.49 191.75 C-160.95 191.69 -167.42 191.63 -173.88 191.58 C-182.26 191.5 -190.64 191.43 -199.02 191.35 C-205.65 191.29 -212.28 191.23 -218.91 191.17 C-222.43 191.15 -225.94 191.11 -229.45 191.08 C-233.37 191.04 -237.29 191.01 -241.21 190.98 C-242.38 190.97 -243.55 190.95 -244.76 190.94 C-246.35 190.93 -246.35 190.93 -247.98 190.92 C-248.9 190.91 -249.83 190.9 -250.79 190.89 C-253.04 190.85 -253.04 190.85 -255 192 C-255.33 233.91 -255.66 275.82 -256 319 C-276.13 319 -296.26 319 -317 319 C-317.66 319.33 -318.32 319.66 -319 320 C-319.33 361.91 -319.66 403.82 -320 447 C-340.13 447 -360.26 447 -381 447 C-381.66 447.33 -382.32 447.66 -383 448 C-383.02 472.76 -383.04 497.51 -383.05 522.27 C-383.06 533.76 -383.06 545.25 -383.08 556.75 C-383.09 566.76 -383.09 576.78 -383.09 586.79 C-383.1 592.1 -383.1 597.4 -383.11 602.71 C-383.11 607.69 -383.11 612.68 -383.11 617.67 C-383.11 619.51 -383.12 621.34 -383.12 623.18 C-383.12 625.68 -383.12 628.17 -383.12 630.67 C-383.12 631.4 -383.13 632.14 -383.13 632.9 C-383.41 636.23 -383.41 636.23 -382 639 C-380.31 639.1 -378.61 639.12 -376.91 639.12 C-375.8 639.13 -374.69 639.13 -373.55 639.13 C-372.31 639.13 -371.08 639.12 -369.81 639.12 C-368.51 639.12 -367.21 639.12 -365.87 639.12 C-362.25 639.13 -358.62 639.12 -355 639.12 C-351.1 639.11 -347.2 639.11 -343.3 639.11 C-336.53 639.11 -329.77 639.11 -323 639.11 C-313.22 639.1 -303.44 639.1 -293.66 639.09 C-277.79 639.09 -261.93 639.08 -246.06 639.08 C-230.64 639.07 -215.23 639.06 -199.81 639.05 C-198.38 639.05 -198.38 639.05 -196.93 639.05 C-192.17 639.05 -187.4 639.05 -182.64 639.05 C-143.09 639.04 -103.55 639.02 -64 639 C-63.67 596.76 -63.34 554.52 -63 511 C-31.32 511.5 -31.32 511.5 1 512 C0.63 490.98 0.63 490.98 0.25 469.97 C0.21 467.34 0.16 464.72 0.12 462.1 C0.11 461.41 0.09 460.73 0.08 460.02 C0.04 458.01 0.01 456 -0.02 453.99 C-0.05 452.29 -0.05 452.29 -0.08 450.55 C0 448 0 448 1 447 C1.09 445.04 1.12 443.07 1.11 441.1 C1.11 439.21 1.11 439.21 1.11 437.28 C1.11 435.89 1.1 434.51 1.1 433.12 C1.1 431.71 1.09 430.3 1.09 428.89 C1.09 425.17 1.08 421.45 1.07 417.73 C1.06 413.93 1.05 410.14 1.05 406.35 C1.04 398.9 1.02 391.45 1 384 C2.18 384 2.18 384 3.38 384.01 C10.77 384.03 18.15 384.04 25.54 384.05 C29.34 384.06 33.13 384.06 36.93 384.08 C40.6 384.09 44.26 384.09 47.92 384.09 C49.32 384.1 50.72 384.1 52.12 384.11 C54.08 384.11 56.03 384.11 57.99 384.11 C59.1 384.12 60.22 384.12 61.37 384.12 C63.98 384.18 63.98 384.18 66 383 C67.4 382.91 68.8 382.88 70.19 382.89 C71.52 382.89 71.52 382.89 72.88 382.89 C74.34 382.9 74.34 382.9 75.84 382.91 C76.87 382.91 77.91 382.92 78.97 382.92 C82.46 382.93 85.95 382.95 89.44 382.96 C91.93 382.97 94.42 382.98 96.91 382.99 C102.99 383.01 109.06 383.03 115.14 383.06 C120.08 383.08 125.02 383.1 129.95 383.12 C130.65 383.12 131.36 383.12 132.08 383.13 C133.5 383.13 134.93 383.14 136.35 383.14 C149.73 383.19 163.1 383.25 176.48 383.31 C187.97 383.36 199.45 383.4 210.94 383.44 C224.27 383.49 237.6 383.54 250.92 383.6 C252.34 383.6 253.76 383.61 255.18 383.61 C256.23 383.62 256.23 383.62 257.3 383.62 C262.23 383.64 267.17 383.66 272.1 383.68 C278.74 383.7 285.37 383.73 292 383.76 C294.45 383.77 296.89 383.78 299.33 383.79 C302.65 383.8 305.97 383.82 309.29 383.84 C310.27 383.84 311.25 383.84 312.26 383.84 C313.14 383.85 314.02 383.85 314.93 383.86 C315.7 383.86 316.47 383.86 317.26 383.87 C319 384 319 384 320 385 C320.12 386.9 320.18 388.81 320.21 390.71 C320.23 391.93 320.25 393.16 320.27 394.41 C320.28 395.76 320.3 397.1 320.32 398.44 C320.34 399.81 320.36 401.17 320.38 402.54 C320.43 406.14 320.48 409.74 320.53 413.35 C320.58 417.02 320.64 420.69 320.69 424.37 C320.8 431.58 320.9 438.79 321 446 C323.67 447.33 325.73 447.15 328.72 447.19 C329.92 447.21 331.11 447.22 332.35 447.24 C333.65 447.25 334.95 447.27 336.29 447.28 C337.63 447.3 338.97 447.32 340.31 447.34 C345.28 447.41 350.26 447.47 355.23 447.53 C359.44 447.58 363.65 447.63 367.85 447.69 C369.83 447.72 371.81 447.74 373.79 447.76 C374.98 447.78 376.18 447.79 377.41 447.81 C378.47 447.82 379.53 447.84 380.62 447.85 C383 448 383 448 384 449 C384.12 450.9 384.18 452.81 384.21 454.71 C384.23 455.93 384.25 457.16 384.27 458.41 C384.28 459.76 384.3 461.1 384.32 462.44 C384.34 463.81 384.36 465.17 384.38 466.54 C384.43 470.14 384.48 473.74 384.53 477.35 C384.58 481.02 384.64 484.69 384.69 488.37 C384.8 495.58 384.9 502.79 385 510 C387.67 511.33 389.73 511.15 392.72 511.19 C393.92 511.21 395.11 511.22 396.35 511.24 C397.65 511.25 398.95 511.27 400.29 511.28 C401.63 511.3 402.97 511.32 404.31 511.34 C409.28 511.41 414.26 511.47 419.23 511.53 C423.44 511.58 427.65 511.63 431.85 511.69 C433.83 511.72 435.81 511.74 437.79 511.76 C438.98 511.78 440.18 511.79 441.41 511.81 C442.47 511.82 443.53 511.84 444.62 511.85 C447 512 447 512 448 513 C448.11 514.62 448.14 516.24 448.15 517.86 C448.16 518.91 448.17 519.96 448.18 521.05 C448.18 522.21 448.19 523.37 448.19 524.57 C448.2 525.79 448.21 527.01 448.21 528.26 C448.23 530.92 448.25 533.57 448.26 536.22 C448.28 540.42 448.31 544.61 448.34 548.8 C448.4 558.46 448.46 568.12 448.51 577.77 C448.56 586.62 448.62 595.47 448.68 604.32 C448.71 608.49 448.73 612.66 448.75 616.83 C448.77 620.03 448.79 623.23 448.81 626.43 C448.81 627.59 448.82 628.76 448.82 629.95 C448.83 631.01 448.84 632.06 448.85 633.14 C448.85 634.06 448.86 634.98 448.86 635.93 C448.77 637.99 448.77 637.99 450 639 C451.69 639.1 453.39 639.12 455.09 639.12 C456.2 639.13 457.31 639.13 458.45 639.13 C459.69 639.13 460.92 639.12 462.19 639.12 C463.49 639.12 464.79 639.12 466.13 639.12 C469.75 639.13 473.38 639.12 477 639.12 C480.9 639.11 484.8 639.11 488.7 639.11 C495.47 639.11 502.23 639.11 509 639.11 C518.78 639.1 528.56 639.1 538.34 639.09 C554.21 639.09 570.07 639.08 585.94 639.08 C601.36 639.07 616.77 639.06 632.19 639.05 C633.62 639.05 633.62 639.05 635.07 639.05 C639.83 639.05 644.6 639.05 649.36 639.05 C688.91 639.04 728.45 639.02 768 639 C768.02 614.24 768.04 589.49 768.05 564.73 C768.06 553.24 768.06 541.75 768.08 530.25 C768.09 520.24 768.09 510.22 768.09 500.21 C768.1 494.9 768.1 489.6 768.11 484.29 C768.11 479.31 768.11 474.32 768.11 469.33 C768.11 467.49 768.12 465.66 768.12 463.82 C768.12 461.32 768.12 458.83 768.12 456.33 C768.12 455.6 768.13 454.86 768.13 454.1 C768.41 450.77 768.41 450.77 767 448 C765.1 447.88 763.2 447.83 761.3 447.81 C760.08 447.79 758.87 447.78 757.61 447.76 C756.96 447.75 756.3 447.75 755.63 447.74 C753.59 447.72 751.54 447.69 749.5 447.66 C745.17 447.6 740.83 447.55 736.5 447.5 C731.48 447.44 726.46 447.38 721.44 447.31 C719.42 447.28 717.41 447.26 715.39 447.24 C714.17 447.22 712.95 447.21 711.7 447.19 C710.62 447.18 709.54 447.16 708.43 447.15 C706 447 706 447 705 446 C704.89 444.38 704.86 442.76 704.85 441.14 C704.84 440.09 704.83 439.04 704.82 437.95 C704.82 436.79 704.81 435.63 704.81 434.43 C704.8 433.21 704.79 431.99 704.79 430.74 C704.77 428.08 704.75 425.43 704.74 422.78 C704.72 418.58 704.69 414.39 704.66 410.2 C704.6 400.54 704.54 390.88 704.49 381.23 C704.44 372.38 704.38 363.53 704.32 354.68 C704.29 350.51 704.27 346.34 704.25 342.17 C704.23 338.97 704.21 335.77 704.19 332.57 C704.19 331.41 704.18 330.24 704.18 329.05 C704.17 327.99 704.16 326.94 704.15 325.86 C704.15 324.94 704.14 324.02 704.14 323.07 C704.23 321.01 704.23 321.01 703 320 C701.1 319.88 699.2 319.83 697.3 319.81 C696.08 319.79 694.87 319.78 693.61 319.76 C692.96 319.75 692.3 319.75 691.63 319.74 C689.59 319.72 687.54 319.69 685.5 319.66 C681.17 319.6 676.83 319.55 672.5 319.5 C667.48 319.44 662.46 319.38 657.44 319.31 C655.42 319.28 653.41 319.26 651.39 319.24 C650.17 319.22 648.95 319.21 647.7 319.19 C646.62 319.18 645.54 319.16 644.43 319.15 C642 319 642 319 641 318 C640.89 316.38 640.86 314.76 640.85 313.14 C640.84 312.09 640.83 311.04 640.82 309.95 C640.82 308.79 640.81 307.63 640.81 306.43 C640.8 305.21 640.79 303.99 640.79 302.74 C640.77 300.08 640.75 297.43 640.74 294.78 C640.72 290.58 640.69 286.39 640.66 282.2 C640.6 272.54 640.54 262.88 640.49 253.23 C640.44 244.38 640.38 235.53 640.32 226.68 C640.29 222.51 640.27 218.34 640.25 214.17 C640.23 210.97 640.21 207.77 640.19 204.57 C640.19 203.41 640.18 202.24 640.18 201.05 C640.17 199.99 640.16 198.94 640.15 197.86 C640.15 196.94 640.14 196.02 640.14 195.07 C640.23 193.01 640.23 193.01 639 192 C637.38 191.89 635.76 191.86 634.14 191.85 C633.09 191.84 632.04 191.83 630.95 191.82 C629.79 191.82 628.63 191.81 627.43 191.81 C626.21 191.8 624.99 191.79 623.74 191.79 C621.08 191.77 618.43 191.75 615.78 191.74 C611.58 191.72 607.39 191.69 603.2 191.66 C594.3 191.6 585.4 191.55 576.5 191.5 C566.89 191.44 557.29 191.39 547.68 191.32 C543.51 191.29 539.34 191.27 535.17 191.25 C531.97 191.23 528.77 191.21 525.57 191.19 C524.41 191.19 523.24 191.18 522.05 191.18 C520.99 191.17 519.94 191.16 518.86 191.15 C517.94 191.15 517.02 191.14 516.07 191.14 C514 191 514 191 513 190 C512.88 188.1 512.83 186.2 512.81 184.3 C512.79 182.48 512.79 182.48 512.76 180.61 C512.75 179.96 512.75 179.3 512.74 178.63 C512.72 176.59 512.69 174.54 512.66 172.5 C512.59 167.43 512.53 162.36 512.47 157.29 C512.42 153 512.37 148.72 512.31 144.44 C512.28 142.42 512.26 140.41 512.24 138.39 C512.22 136.56 512.22 136.56 512.19 134.7 C512.17 133.08 512.17 133.08 512.15 131.43 C512.27 129.05 512.27 129.05 511 128 C509.38 127.89 507.76 127.86 506.14 127.85 C505.09 127.84 504.04 127.83 502.95 127.82 C501.21 127.82 501.21 127.82 499.43 127.81 C498.21 127.8 496.99 127.79 495.74 127.79 C493.08 127.77 490.43 127.75 487.78 127.74 C483.58 127.72 479.39 127.69 475.2 127.66 C466.3 127.6 457.4 127.55 448.5 127.5 C438.89 127.44 429.29 127.39 419.68 127.32 C415.51 127.29 411.34 127.27 407.17 127.25 C403.97 127.23 400.77 127.21 397.57 127.19 C395.83 127.18 395.83 127.18 394.05 127.18 C392.99 127.17 391.94 127.16 390.86 127.15 C389.94 127.15 389.02 127.14 388.07 127.14 C386 127 386 127 385 126 C384.88 124.1 384.83 122.2 384.81 120.3 C384.79 119.08 384.78 117.87 384.76 116.61 C384.75 115.96 384.75 115.3 384.74 114.63 C384.72 112.59 384.69 110.54 384.66 108.5 C384.59 103.43 384.53 98.36 384.47 93.29 C384.42 89 384.37 84.72 384.31 80.44 C384.28 78.42 384.26 76.41 384.24 74.39 C384.22 73.17 384.21 71.95 384.19 70.7 C384.17 69.08 384.17 69.08 384.15 67.43 C384.27 65.05 384.27 65.05 383 64 C380.98 63.9 378.97 63.86 376.95 63.86 C376.31 63.86 375.66 63.85 375 63.85 C372.82 63.84 370.65 63.84 368.47 63.84 C366.9 63.83 365.33 63.82 363.77 63.82 C359.44 63.8 355.11 63.79 350.79 63.78 C346.13 63.77 341.47 63.76 336.81 63.74 C327.68 63.72 318.55 63.69 309.41 63.67 C301.99 63.65 294.57 63.63 287.15 63.61 C285.57 63.61 285.57 63.61 283.96 63.61 C281.82 63.6 279.68 63.59 277.54 63.59 C257.44 63.53 237.34 63.48 217.24 63.43 C199.98 63.39 182.71 63.35 165.45 63.3 C145.43 63.24 125.4 63.18 105.38 63.13 C103.25 63.13 101.11 63.12 98.98 63.12 C97.93 63.12 96.88 63.11 95.8 63.11 C88.38 63.09 80.97 63.07 73.56 63.05 C64.52 63.02 55.49 63 46.46 62.98 C41.85 62.97 37.24 62.96 32.63 62.94 C28.41 62.93 24.2 62.92 19.98 62.92 C18.45 62.91 16.92 62.91 15.39 62.9 C13.32 62.89 11.25 62.89 9.18 62.89 C8.02 62.89 6.87 62.88 5.68 62.88 C3.03 62.82 3.03 62.82 1 64 Z M64 450 C63.56 452.77 63.56 452.77 63.66 455.94 C63.66 457.16 63.66 458.38 63.66 459.64 C63.68 460.96 63.69 462.28 63.71 463.64 C63.71 465 63.72 466.36 63.72 467.73 C63.73 471.31 63.76 474.9 63.79 478.48 C63.82 482.14 63.84 485.8 63.85 489.46 C63.89 496.64 63.94 503.82 64 511 C63.24 510.99 62.48 510.99 61.7 510.98 C54.57 510.92 47.43 510.87 40.3 510.84 C36.63 510.83 32.96 510.81 29.29 510.77 C25.75 510.74 22.21 510.72 18.67 510.72 C16.66 510.71 14.65 510.68 12.64 510.66 C11.42 510.66 10.2 510.66 8.94 510.66 C7.86 510.65 6.79 510.65 5.68 510.64 C2.55 511.06 1.89 511.56 0 514 C-0.44 516.03 -0.44 516.03 -0.37 518.3 C-0.38 519.19 -0.38 520.07 -0.39 520.98 C-0.38 521.95 -0.37 522.93 -0.36 523.93 C-0.36 524.96 -0.37 525.99 -0.37 527.05 C-0.37 530.53 -0.36 534 -0.34 537.47 C-0.34 539.96 -0.34 542.44 -0.34 544.92 C-0.34 550.28 -0.33 555.63 -0.32 560.99 C-0.29 568.73 -0.28 576.47 -0.28 584.21 C-0.27 596.77 -0.25 609.33 -0.23 621.89 C-0.2 634.09 -0.18 646.3 -0.16 658.5 C-0.16 659.25 -0.16 660 -0.16 660.78 C-0.16 664.55 -0.15 668.32 -0.15 672.09 C-0.12 703.4 -0.07 734.7 0 766 C2.69 767.34 4.8 767.15 7.81 767.19 C9.03 767.21 10.25 767.22 11.5 767.24 C12.48 767.25 12.48 767.25 13.48 767.26 C15.52 767.28 17.55 767.31 19.59 767.34 C24.65 767.41 29.71 767.47 34.77 767.53 C39.05 767.58 43.32 767.63 47.6 767.69 C49.61 767.72 51.62 767.74 53.64 767.76 C54.85 767.78 56.07 767.79 57.32 767.81 C58.39 767.82 59.47 767.84 60.58 767.85 C63 768 63 768 64 769 C64.09 770.9 64.12 772.81 64.11 774.71 C64.11 775.93 64.11 777.16 64.11 778.41 C64.11 779.76 64.1 781.1 64.1 782.44 C64.1 783.81 64.09 785.17 64.09 786.54 C64.09 790.14 64.08 793.74 64.07 797.35 C64.06 801.02 64.05 804.69 64.05 808.37 C64.04 815.58 64.02 822.79 64 830 C66.31 831.16 67.62 831.12 70.2 831.12 C71.53 831.13 71.53 831.13 72.88 831.13 C73.86 831.13 74.84 831.12 75.85 831.12 C77.4 831.12 77.4 831.12 78.98 831.12 C82.47 831.12 85.96 831.12 89.45 831.11 C91.94 831.11 94.44 831.11 96.93 831.11 C102.31 831.11 107.69 831.11 113.07 831.11 C120.84 831.1 128.62 831.09 136.4 831.09 C149.01 831.09 161.63 831.08 174.24 831.08 C186.5 831.07 198.76 831.06 211.02 831.05 C211.77 831.05 212.53 831.05 213.31 831.05 C217.09 831.05 220.88 831.05 224.67 831.05 C256.11 831.04 287.56 831.02 319 831 C319.76 839.5 320.14 847.9 320.1 856.43 C320.1 857.54 320.09 858.65 320.09 859.8 C320.09 863.3 320.08 866.81 320.06 870.31 C320.06 872.71 320.05 875.11 320.05 877.51 C320.04 883.34 320.02 889.17 320 895 C287.66 895.02 255.32 895.04 222.98 895.05 C219.16 895.05 215.35 895.05 211.53 895.05 C210.78 895.06 210.02 895.06 209.23 895.06 C196.92 895.06 184.61 895.07 172.3 895.08 C159.68 895.09 147.05 895.09 134.43 895.09 C126.63 895.1 118.84 895.1 111.04 895.11 C105.07 895.11 99.11 895.11 93.14 895.11 C90.68 895.11 88.23 895.12 85.77 895.12 C82.44 895.12 79.1 895.12 75.76 895.12 C74.28 895.12 74.28 895.12 72.78 895.13 C71.45 895.13 71.45 895.13 70.09 895.12 C68.93 895.12 68.93 895.12 67.75 895.12 C66 895 66 895 65 894 C64.88 892.11 64.83 890.21 64.81 888.32 C64.79 887.1 64.78 885.89 64.76 884.64 C64.75 883.98 64.75 883.33 64.74 882.66 C64.72 880.62 64.69 878.58 64.66 876.54 C64.6 872.22 64.55 867.89 64.5 863.56 C64.44 858.55 64.38 853.54 64.31 848.53 C64.28 846.52 64.26 844.51 64.24 842.5 C64.22 841.28 64.21 840.07 64.19 838.81 C64.17 837.2 64.17 837.2 64.15 835.55 C64.17 833.01 64.17 833.01 63 831 C61.86 831 61.86 831 60.69 831.01 C53.52 831.03 46.36 831.04 39.19 831.05 C35.51 831.06 31.82 831.06 28.14 831.08 C24.58 831.09 21.03 831.09 17.48 831.09 C16.12 831.1 14.76 831.1 13.4 831.11 C11.51 831.11 9.61 831.11 7.71 831.11 C6.63 831.12 5.55 831.12 4.44 831.12 C2 831 2 831 1 830 C0.88 828.11 0.83 826.21 0.81 824.32 C0.79 823.1 0.78 821.89 0.76 820.64 C0.75 819.98 0.75 819.33 0.74 818.66 C0.72 816.62 0.69 814.58 0.66 812.54 C0.6 808.22 0.55 803.89 0.5 799.56 C0.44 794.55 0.38 789.54 0.31 784.53 C0.28 782.52 0.26 780.51 0.24 778.5 C0.22 777.28 0.21 776.07 0.19 774.81 C0.17 773.2 0.17 773.2 0.15 771.55 C0.17 769.01 0.17 769.01 -1 767 C-2.14 767 -2.14 767 -3.31 767.01 C-10.48 767.03 -17.64 767.04 -24.81 767.05 C-28.49 767.06 -32.18 767.06 -35.86 767.08 C-39.42 767.09 -42.97 767.09 -46.52 767.09 C-47.88 767.1 -49.24 767.1 -50.6 767.11 C-52.49 767.11 -54.39 767.11 -56.29 767.11 C-57.37 767.12 -58.45 767.12 -59.56 767.12 C-62 767 -62 767 -63 766 C-63.12 764.11 -63.17 762.21 -63.19 760.32 C-63.21 759.1 -63.22 757.89 -63.24 756.64 C-63.25 755.98 -63.25 755.33 -63.26 754.66 C-63.28 752.62 -63.31 750.58 -63.34 748.54 C-63.4 744.22 -63.45 739.89 -63.5 735.56 C-63.56 730.55 -63.62 725.54 -63.69 720.53 C-63.72 718.52 -63.74 716.51 -63.76 714.5 C-63.78 713.28 -63.79 712.07 -63.81 710.81 C-63.83 709.2 -63.83 709.2 -63.85 707.55 C-63.83 705.01 -63.83 705.01 -65 703 C-105.21 702.93 -145.41 702.88 -185.62 702.85 C-190.36 702.84 -195.1 702.84 -199.84 702.84 C-201.26 702.83 -201.26 702.83 -202.71 702.83 C-218.01 702.82 -233.31 702.8 -248.62 702.77 C-264.31 702.74 -280.01 702.72 -295.7 702.72 C-305.39 702.71 -315.08 702.7 -324.77 702.68 C-331.41 702.66 -338.05 702.66 -344.69 702.66 C-348.52 702.66 -352.36 702.66 -356.19 702.64 C-360.34 702.63 -364.49 702.63 -368.64 702.64 C-370.47 702.63 -370.47 702.63 -372.34 702.61 C-373.45 702.62 -374.56 702.62 -375.7 702.63 C-376.65 702.63 -377.61 702.63 -378.6 702.63 C-381.43 703.07 -382.32 703.72 -384 706 C-384.44 708.37 -384.44 708.37 -384.36 711.07 C-384.36 712.12 -384.37 713.16 -384.37 714.24 C-384.36 715.39 -384.35 716.54 -384.34 717.72 C-384.34 718.93 -384.34 720.14 -384.34 721.39 C-384.34 724.71 -384.33 728.03 -384.3 731.34 C-384.29 734.81 -384.28 738.28 -384.28 741.75 C-384.27 748.31 -384.25 754.88 -384.22 761.44 C-384.18 768.92 -384.17 776.39 -384.15 783.87 C-384.12 799.25 -384.07 814.62 -384 830 C-381.31 831.34 -379.2 831.15 -376.19 831.19 C-374.97 831.21 -373.75 831.22 -372.5 831.24 C-371.52 831.25 -371.52 831.25 -370.52 831.26 C-368.48 831.28 -366.45 831.31 -364.41 831.34 C-359.35 831.41 -354.29 831.47 -349.23 831.53 C-344.95 831.58 -340.68 831.63 -336.4 831.69 C-334.39 831.72 -332.38 831.74 -330.36 831.76 C-329.15 831.78 -327.93 831.79 -326.68 831.81 C-325.61 831.82 -324.53 831.84 -323.42 831.85 C-321 832 -321 832 -320 833 C-319.9 834.62 -319.88 836.24 -319.88 837.87 C-319.88 839.45 -319.88 839.45 -319.88 841.06 C-319.88 842.8 -319.88 842.8 -319.89 844.59 C-319.89 845.81 -319.89 847.03 -319.89 848.28 C-319.89 851.64 -319.89 854.99 -319.9 858.34 C-319.9 861.84 -319.91 865.34 -319.91 868.84 C-319.91 875.48 -319.92 882.11 -319.93 888.74 C-319.94 896.29 -319.94 903.84 -319.95 911.4 C-319.96 926.93 -319.98 942.47 -320 958 C-317.31 959.34 -315.2 959.15 -312.19 959.19 C-310.36 959.21 -310.36 959.21 -308.5 959.24 C-307.85 959.25 -307.19 959.25 -306.52 959.26 C-304.48 959.28 -302.45 959.31 -300.41 959.34 C-295.35 959.41 -290.29 959.47 -285.23 959.53 C-280.95 959.58 -276.68 959.63 -272.4 959.69 C-270.39 959.72 -268.38 959.74 -266.36 959.76 C-264.54 959.78 -264.54 959.78 -262.68 959.81 C-261.07 959.83 -261.07 959.83 -259.42 959.85 C-257 960 -257 960 -256 961 C-255.9 962.62 -255.88 964.24 -255.88 965.87 C-255.88 966.92 -255.88 967.97 -255.88 969.06 C-255.88 970.22 -255.88 971.39 -255.89 972.59 C-255.89 973.81 -255.89 975.03 -255.89 976.28 C-255.89 979.64 -255.89 982.99 -255.9 986.34 C-255.9 989.84 -255.91 993.34 -255.91 996.84 C-255.91 1003.48 -255.92 1010.11 -255.93 1016.74 C-255.94 1024.29 -255.94 1031.84 -255.95 1039.4 C-255.96 1054.93 -255.98 1070.47 -256 1086 C-253.51 1087.25 -251.81 1087.14 -249.02 1087.15 C-247.97 1087.16 -246.91 1087.17 -245.83 1087.18 C-244.67 1087.18 -243.51 1087.19 -242.31 1087.19 C-241.1 1087.2 -239.88 1087.21 -238.62 1087.21 C-235.97 1087.23 -233.32 1087.25 -230.67 1087.26 C-226.48 1087.28 -222.29 1087.31 -218.1 1087.34 C-208.46 1087.4 -198.81 1087.46 -189.17 1087.51 C-180.33 1087.56 -171.48 1087.62 -162.64 1087.68 C-158.47 1087.71 -154.31 1087.73 -150.14 1087.75 C-146.94 1087.77 -143.75 1087.79 -140.56 1087.81 C-139.39 1087.81 -138.23 1087.82 -137.03 1087.82 C-135.98 1087.83 -134.93 1087.84 -133.85 1087.85 C-132.93 1087.85 -132.02 1087.86 -131.07 1087.86 C-129 1088 -129 1088 -128 1089 C-127.91 1090.9 -127.88 1092.81 -127.89 1094.71 C-127.89 1095.93 -127.89 1097.16 -127.89 1098.41 C-127.89 1099.76 -127.9 1101.1 -127.9 1102.44 C-127.9 1103.81 -127.91 1105.17 -127.91 1106.54 C-127.91 1110.14 -127.92 1113.74 -127.93 1117.35 C-127.94 1121.02 -127.95 1124.69 -127.95 1128.37 C-127.96 1135.58 -127.98 1142.79 -128 1150 C-125.51 1151.25 -123.81 1151.14 -121.02 1151.15 C-119.97 1151.16 -118.91 1151.17 -117.83 1151.18 C-116.67 1151.18 -115.51 1151.19 -114.31 1151.19 C-113.1 1151.2 -111.88 1151.21 -110.62 1151.21 C-107.97 1151.23 -105.32 1151.25 -102.67 1151.26 C-98.48 1151.28 -94.29 1151.31 -90.1 1151.34 C-80.46 1151.4 -70.81 1151.46 -61.17 1151.51 C-52.33 1151.56 -43.48 1151.62 -34.64 1151.68 C-30.47 1151.71 -26.31 1151.73 -22.14 1151.75 C-18.94 1151.77 -15.75 1151.79 -12.56 1151.81 C-11.39 1151.81 -10.23 1151.82 -9.03 1151.82 C-7.98 1151.83 -6.93 1151.84 -5.85 1151.85 C-4.93 1151.85 -4.02 1151.86 -3.07 1151.86 C-1 1152 -1 1152 0 1153 C0.09 1154.9 0.12 1156.81 0.11 1158.71 C0.11 1159.93 0.11 1161.16 0.11 1162.41 C0.11 1163.76 0.1 1165.1 0.1 1166.44 C0.1 1167.81 0.09 1169.17 0.09 1170.54 C0.09 1174.14 0.08 1177.74 0.07 1181.35 C0.06 1185.02 0.05 1188.69 0.05 1192.37 C0.04 1199.58 0.02 1206.79 0 1214 C2.8 1215.4 5.1 1215.13 8.23 1215.14 C8.88 1215.14 9.53 1215.14 10.19 1215.15 C12.39 1215.16 14.59 1215.16 16.78 1215.16 C18.36 1215.16 19.94 1215.17 21.53 1215.17 C25.89 1215.19 30.25 1215.19 34.61 1215.2 C39.31 1215.21 44.01 1215.22 48.71 1215.24 C56.85 1215.26 65 1215.28 73.14 1215.29 C84.92 1215.31 96.69 1215.34 108.47 1215.37 C127.58 1215.42 146.68 1215.46 165.79 1215.5 C184.35 1215.54 202.91 1215.58 221.47 1215.63 C222.62 1215.63 223.76 1215.63 224.94 1215.64 C230.68 1215.65 236.41 1215.66 242.15 1215.68 C289.77 1215.79 337.38 1215.9 385 1216 C385 1215.21 385 1214.43 384.99 1213.62 C384.97 1206.21 384.96 1198.81 384.95 1191.41 C384.94 1187.6 384.94 1183.8 384.92 1179.99 C384.91 1176.32 384.91 1172.65 384.91 1168.98 C384.9 1167.58 384.9 1166.18 384.89 1164.77 C384.89 1162.81 384.89 1160.86 384.89 1158.9 C384.88 1157.22 384.88 1157.22 384.88 1155.51 C385 1153 385 1153 386 1152 C387.64 1151.9 389.29 1151.88 390.94 1151.88 C392.01 1151.88 393.08 1151.88 394.18 1151.88 C395.37 1151.88 396.55 1151.88 397.77 1151.89 C399.63 1151.89 399.63 1151.89 401.53 1151.89 C404.93 1151.89 408.34 1151.89 411.75 1151.9 C415.3 1151.9 418.86 1151.91 422.42 1151.91 C429.16 1151.91 435.9 1151.92 442.64 1151.93 C450.31 1151.94 457.98 1151.94 465.65 1151.95 C481.43 1151.96 497.22 1151.98 513 1152 C513 1151.21 513 1150.43 512.99 1149.62 C512.97 1142.21 512.96 1134.81 512.95 1127.41 C512.94 1123.6 512.94 1119.8 512.92 1115.99 C512.91 1112.32 512.91 1108.65 512.91 1104.98 C512.9 1103.58 512.9 1102.18 512.89 1100.77 C512.89 1098.81 512.89 1096.86 512.89 1094.9 C512.88 1093.22 512.88 1093.22 512.88 1091.51 C513 1089 513 1089 514 1088 C515.64 1087.9 517.29 1087.88 518.94 1087.88 C520.01 1087.88 521.08 1087.88 522.18 1087.88 C523.37 1087.88 524.55 1087.88 525.77 1087.89 C527.63 1087.89 527.63 1087.89 529.53 1087.89 C532.93 1087.89 536.34 1087.89 539.75 1087.9 C543.3 1087.9 546.86 1087.91 550.42 1087.91 C557.16 1087.91 563.9 1087.92 570.64 1087.93 C578.31 1087.94 585.98 1087.94 593.65 1087.95 C609.43 1087.96 625.22 1087.98 641 1088 C641 1087.35 641 1086.69 641 1086.02 C640.98 1070.14 640.96 1054.26 640.95 1038.38 C640.94 1030.7 640.94 1023.02 640.92 1015.34 C640.91 1008.64 640.91 1001.95 640.91 995.26 C640.9 991.72 640.9 988.17 640.89 984.63 C640.89 980.67 640.89 976.72 640.89 972.77 C640.88 971.59 640.88 970.4 640.88 969.18 C640.88 967.58 640.88 967.58 640.88 965.94 C640.88 965.01 640.88 964.07 640.88 963.11 C641 961 641 961 642 960 C643.96 959.91 645.93 959.88 647.9 959.89 C649.16 959.89 650.42 959.89 651.72 959.89 C653.11 959.89 654.49 959.9 655.88 959.9 C657.29 959.9 658.7 959.91 660.11 959.91 C663.83 959.91 667.55 959.92 671.27 959.93 C675.07 959.94 678.86 959.95 682.65 959.95 C690.1 959.96 697.55 959.98 705 960 C705 959.35 705 958.69 705 958.02 C704.98 942.14 704.96 926.26 704.95 910.38 C704.94 902.7 704.94 895.02 704.92 887.34 C704.91 880.64 704.91 873.95 704.91 867.26 C704.9 863.72 704.9 860.17 704.89 856.63 C704.89 852.67 704.89 848.72 704.89 844.77 C704.88 843.59 704.88 842.4 704.88 841.18 C704.88 839.58 704.88 839.58 704.88 837.94 C704.88 837.01 704.88 836.07 704.88 835.11 C705 833 705 833 706 832 C707.96 831.91 709.93 831.88 711.9 831.89 C713.16 831.89 714.42 831.89 715.72 831.89 C717.11 831.89 718.49 831.9 719.88 831.9 C721.29 831.9 722.7 831.91 724.11 831.91 C727.83 831.91 731.55 831.92 735.27 831.93 C739.07 831.94 742.86 831.95 746.65 831.95 C754.1 831.96 761.55 831.98 769 832 C768.89 815.48 768.78 798.95 768.66 782.43 C768.61 774.76 768.55 767.08 768.5 759.41 C768.46 752.73 768.41 746.04 768.36 739.36 C768.34 735.81 768.31 732.27 768.29 728.73 C768.27 724.78 768.24 720.83 768.21 716.89 C768.2 715.11 768.2 715.11 768.19 713.31 C768.18 712.24 768.17 711.17 768.16 710.06 C768.15 708.66 768.15 708.66 768.14 707.23 C768.14 704.96 768.14 704.96 767 703 C726.79 702.93 686.59 702.88 646.38 702.85 C641.64 702.84 636.9 702.84 632.16 702.84 C630.74 702.83 630.74 702.83 629.29 702.83 C613.99 702.82 598.69 702.8 583.38 702.77 C567.69 702.74 551.99 702.72 536.3 702.72 C526.61 702.71 516.92 702.7 507.23 702.68 C500.59 702.66 493.95 702.66 487.31 702.66 C483.48 702.66 479.64 702.66 475.81 702.64 C471.66 702.63 467.51 702.63 463.36 702.64 C461.53 702.63 461.53 702.63 459.66 702.61 C458.55 702.62 457.44 702.62 456.3 702.63 C455.35 702.63 454.39 702.63 453.4 702.63 C450.95 702.82 450.95 702.82 449.19 704.36 C447.39 706.85 447.64 708.9 447.66 711.94 C447.66 713.16 447.66 714.38 447.66 715.64 C447.68 716.96 447.69 718.28 447.71 719.64 C447.71 721 447.72 722.36 447.72 723.73 C447.73 727.31 447.76 730.9 447.79 734.48 C447.82 738.14 447.84 741.8 447.85 745.46 C447.89 752.64 447.94 759.82 448 767 C440.39 767.02 432.79 767.04 425.18 767.05 C421.65 767.06 418.12 767.06 414.58 767.08 C410.52 767.09 406.46 767.09 402.39 767.1 C401.13 767.1 399.87 767.11 398.56 767.11 C397.38 767.11 396.2 767.11 394.98 767.11 C393.95 767.12 392.91 767.12 391.84 767.12 C389.12 767 386.66 766.56 384 766 C384 764.7 384 763.4 384 762.05 C384.02 731.17 384.04 700.29 384.05 669.41 C384.05 665.61 384.05 661.81 384.05 658.02 C384.06 657.26 384.06 656.5 384.06 655.73 C384.06 643.47 384.07 631.21 384.08 618.96 C384.09 606.39 384.09 593.82 384.09 581.25 C384.1 573.49 384.1 565.73 384.11 557.97 C384.11 552.03 384.11 546.09 384.11 540.15 C384.11 537.7 384.12 535.26 384.12 532.81 C384.12 529.49 384.12 526.17 384.12 522.85 C384.12 521.87 384.13 520.89 384.13 519.88 C384.13 518.99 384.13 518.11 384.12 517.2 C384.12 516.43 384.12 515.66 384.12 514.87 C384.12 512.91 384.12 512.91 383 511 C381.86 511 381.86 511 380.69 511.01 C373.52 511.03 366.36 511.04 359.19 511.05 C355.51 511.06 351.82 511.06 348.14 511.08 C344.58 511.09 341.03 511.09 337.48 511.09 C336.12 511.1 334.76 511.1 333.4 511.11 C331.51 511.11 329.61 511.11 327.71 511.11 C326.09 511.12 326.09 511.12 324.44 511.12 C322 511 322 511 321 510 C320.88 508.11 320.83 506.21 320.81 504.32 C320.79 503.1 320.78 501.89 320.76 500.64 C320.75 499.98 320.75 499.33 320.74 498.66 C320.72 496.62 320.69 494.58 320.66 492.54 C320.6 488.22 320.55 483.89 320.5 479.56 C320.44 474.55 320.38 469.54 320.31 464.53 C320.28 462.52 320.26 460.51 320.24 458.5 C320.22 457.28 320.21 456.07 320.19 454.81 C320.17 453.2 320.17 453.2 320.15 451.55 C320.17 449.01 320.17 449.01 319 447 C286.95 446.93 254.9 446.88 222.84 446.85 C219.06 446.84 215.28 446.84 211.5 446.84 C210.75 446.83 209.99 446.83 209.22 446.83 C197.02 446.82 184.82 446.8 172.62 446.77 C160.1 446.74 147.59 446.72 135.08 446.72 C127.35 446.71 119.63 446.7 111.9 446.68 C105.99 446.66 100.07 446.66 94.15 446.66 C91.72 446.66 89.29 446.65 86.86 446.64 C83.55 446.63 80.24 446.63 76.93 446.64 C75.96 446.63 74.98 446.62 73.98 446.61 C72.66 446.62 72.66 446.62 71.3 446.63 C70.54 446.63 69.78 446.63 68.99 446.63 C66.44 447.1 65.55 447.96 64 450 Z " fill="#000000" transform="translate(447,0)"/>
<path d="M0 0 C16.39 0.08 32.79 0.18 49.18 0.29 C56.79 0.34 64.4 0.38 72.02 0.42 C78.65 0.45 85.28 0.49 91.91 0.54 C95.43 0.57 98.94 0.59 102.45 0.6 C106.37 0.62 110.29 0.65 114.21 0.68 C115.96 0.68 115.96 0.68 117.76 0.69 C118.82 0.7 119.88 0.71 120.98 0.72 C122.37 0.73 122.37 0.73 123.79 0.74 C126 1 126 1 128 3 C128.24 5.56 128.24 5.56 128.23 8.83 C128.23 10.05 128.23 11.27 128.23 12.53 C128.22 13.86 128.21 15.2 128.2 16.54 C128.19 17.9 128.19 19.27 128.19 20.63 C128.18 24.23 128.16 27.82 128.14 31.41 C128.12 35.08 128.11 38.75 128.1 42.41 C128.08 49.61 128.04 56.8 128 64 C131.18 65.06 133.39 65.11 136.72 65.08 C138.49 65.07 138.49 65.07 140.28 65.06 C141.55 65.05 142.82 65.04 144.13 65.03 C146.12 65.02 148.1 65.01 150.09 65 C154.99 64.98 159.9 64.94 164.81 64.9 C167.56 64.88 170.31 64.87 173.07 64.86 C175.66 64.85 178.26 64.83 180.85 64.8 C182.61 64.79 182.61 64.79 184.4 64.79 C185.96 64.78 185.96 64.78 187.54 64.77 C190 65 190 65 192 67 C192.25 69.21 192.25 69.21 192.25 72.02 C192.25 73.08 192.26 74.14 192.26 75.23 C192.25 76.4 192.25 77.57 192.24 78.78 C192.24 80.01 192.25 81.23 192.25 82.5 C192.25 85.87 192.25 89.24 192.24 92.61 C192.23 96.14 192.23 99.66 192.23 103.18 C192.23 109.1 192.22 115.01 192.21 120.93 C192.19 127.78 192.18 134.63 192.19 141.47 C192.19 148.05 192.18 154.63 192.17 161.21 C192.17 164.01 192.17 166.82 192.17 169.62 C192.17 173.53 192.16 177.44 192.15 181.35 C192.15 183.11 192.15 183.11 192.15 184.9 C192.14 185.96 192.14 187.02 192.13 188.11 C192.13 189.5 192.13 189.5 192.13 190.91 C192 193 192 193 191 194 C189.04 194.09 187.07 194.12 185.1 194.11 C183.84 194.11 182.58 194.11 181.28 194.11 C179.89 194.11 178.51 194.1 177.12 194.1 C175.71 194.1 174.3 194.09 172.89 194.09 C169.17 194.09 165.45 194.08 161.73 194.07 C157.93 194.06 154.14 194.05 150.35 194.05 C142.9 194.04 135.45 194.02 128 194 C128 194.78 128 195.57 128.01 196.38 C128.03 203.77 128.04 211.15 128.05 218.54 C128.06 222.34 128.06 226.13 128.08 229.93 C128.09 233.6 128.09 237.26 128.09 240.92 C128.1 242.32 128.1 243.72 128.11 245.12 C128.11 247.08 128.11 249.03 128.11 250.99 C128.12 252.1 128.12 253.22 128.12 254.37 C128 257 128 257 127 259 C126.94 261 126.94 263.01 126.98 265.01 C127.01 266.93 127.01 266.93 127.04 268.89 C127.07 270.25 127.09 271.61 127.12 272.98 C127.14 274.21 127.16 275.45 127.18 276.72 C127.26 281.36 127.35 285.99 127.44 290.62 C127.62 300.98 127.81 311.33 128 322 C96.32 321.5 96.32 321.5 64 321 C63.67 363.24 63.34 405.48 63 449 C22.51 449.02 -17.99 449.04 -58.48 449.05 C-63.26 449.05 -68.03 449.05 -72.81 449.05 C-74.24 449.06 -74.24 449.06 -75.69 449.06 C-91.11 449.06 -106.52 449.07 -121.94 449.08 C-137.74 449.09 -153.55 449.09 -169.35 449.09 C-179.11 449.1 -188.88 449.1 -198.64 449.11 C-205.32 449.11 -212 449.11 -218.69 449.11 C-222.55 449.11 -226.41 449.11 -230.28 449.12 C-234.45 449.12 -238.63 449.12 -242.81 449.12 C-244.04 449.12 -245.28 449.13 -246.55 449.13 C-247.66 449.13 -248.77 449.13 -249.91 449.12 C-251.36 449.12 -251.36 449.12 -252.84 449.12 C-255 449 -255 449 -256 448 C-256.1 445.55 -256.13 443.12 -256.12 440.67 C-256.12 439.89 -256.12 439.11 -256.12 438.31 C-256.12 435.69 -256.12 433.07 -256.11 430.45 C-256.11 428.57 -256.11 426.7 -256.11 424.83 C-256.11 419.73 -256.11 414.63 -256.1 409.53 C-256.1 404.21 -256.09 398.89 -256.09 393.56 C-256.09 383.48 -256.08 373.39 -256.07 363.31 C-256.06 351.83 -256.06 340.35 -256.05 328.87 C-256.04 305.24 -256.02 281.62 -256 258 C-236.08 251.36 -214 257 -193 257 C-192.67 215.09 -192.34 173.18 -192 130 C-172.08 123.36 -150 129 -129 129 C-128.67 87.09 -128.34 45.18 -128 2 C-124.98 0.99 -123.04 0.89 -119.89 0.92 C-118.31 0.93 -118.31 0.93 -116.69 0.94 C-115.54 0.95 -114.38 0.96 -113.18 0.98 C-111.97 0.99 -110.75 1 -109.49 1.01 C-106.14 1.03 -102.8 1.07 -99.45 1.1 C-95.96 1.13 -92.46 1.16 -88.97 1.19 C-82.35 1.25 -75.73 1.31 -69.11 1.37 C-61.58 1.45 -54.04 1.51 -46.5 1.58 C-31 1.71 -15.5 1.85 0 2 C0 1.34 0 0.68 0 0 Z " fill="#E81619" transform="translate(320,190)"/>
<path d="M0 0 C1.33 -0.01 1.33 -0.01 2.68 -0.02 C3.65 -0.01 4.62 -0 5.62 0.01 C6.65 0.01 7.69 0 8.75 0 C12.22 -0 15.7 0.01 19.17 0.03 C21.65 0.03 24.14 0.03 26.62 0.03 C31.97 0.03 37.33 0.04 42.68 0.05 C50.42 0.08 58.17 0.08 65.91 0.09 C78.47 0.09 91.03 0.11 103.59 0.14 C115.79 0.17 127.99 0.19 140.19 0.2 C140.95 0.21 141.7 0.21 142.47 0.21 C146.24 0.21 150.02 0.21 153.79 0.22 C185.09 0.25 216.39 0.3 247.7 0.37 C249.04 3.06 248.86 5.19 248.9 8.2 C248.92 9.42 248.94 10.64 248.96 11.9 C248.98 13.23 248.99 14.57 249.01 15.91 C249.03 17.27 249.05 18.64 249.07 20 C249.13 23.6 249.18 27.19 249.23 30.78 C249.28 34.45 249.33 38.12 249.39 41.78 C249.5 48.98 249.6 56.17 249.7 63.37 C253.01 64.37 256.02 64.49 259.47 64.48 C261.21 64.48 261.21 64.48 262.99 64.48 C264.24 64.48 265.49 64.47 266.77 64.47 C268.06 64.47 269.34 64.46 270.66 64.46 C274.06 64.46 277.46 64.45 280.86 64.44 C284.33 64.43 287.8 64.42 291.27 64.42 C298.08 64.41 304.89 64.39 311.7 64.37 C312.85 66.68 312.82 67.99 312.82 70.57 C312.82 71.45 312.82 72.34 312.82 73.25 C312.82 74.23 312.82 75.21 312.82 76.21 C312.82 77.77 312.82 77.77 312.82 79.35 C312.82 82.84 312.81 86.33 312.81 89.82 C312.81 92.31 312.81 94.81 312.81 97.3 C312.81 102.68 312.81 108.06 312.8 113.44 C312.79 121.21 312.79 128.99 312.79 136.76 C312.79 149.38 312.78 162 312.77 174.61 C312.76 186.87 312.75 199.13 312.75 211.39 C312.75 212.52 312.75 212.52 312.75 213.67 C312.75 217.46 312.75 221.25 312.75 225.04 C312.74 256.48 312.72 287.93 312.7 319.37 C313.36 319.37 314.02 319.37 314.7 319.37 C314.7 320.36 314.7 321.35 314.7 322.37 C314.04 322.37 313.38 322.37 312.7 322.37 C312.77 323.02 312.84 323.67 312.91 324.35 C313.63 331.45 313.83 338.46 313.79 345.6 C313.79 347.27 313.79 347.27 313.79 348.98 C313.78 352.51 313.77 356.03 313.76 359.56 C313.75 361.96 313.75 364.37 313.74 366.78 C313.73 372.64 313.72 378.51 313.7 384.37 C310.59 385.41 308.43 385.5 305.17 385.5 C304.04 385.5 302.91 385.5 301.74 385.51 C300.52 385.51 299.3 385.5 298.04 385.5 C296.16 385.5 296.16 385.5 294.24 385.5 C291.59 385.51 288.93 385.5 286.28 385.5 C282.88 385.49 279.48 385.5 276.08 385.5 C272.84 385.51 269.59 385.5 266.35 385.5 C265.13 385.5 263.91 385.51 262.65 385.51 C261.52 385.5 260.39 385.5 259.22 385.5 C258.22 385.5 257.23 385.5 256.2 385.5 C253.7 385.37 253.7 385.37 250.7 384.37 C250.7 385.03 250.7 385.69 250.7 386.37 C249.71 386.37 248.72 386.37 247.7 386.37 C247.7 385.71 247.7 385.05 247.7 384.37 C246.39 384.37 245.09 384.37 243.75 384.37 C212.87 384.39 181.99 384.41 151.11 384.42 C147.31 384.42 143.51 384.42 139.71 384.42 C138.58 384.42 138.58 384.42 137.42 384.42 C125.16 384.43 112.91 384.44 100.65 384.45 C88.08 384.46 75.52 384.46 62.95 384.46 C55.19 384.46 47.43 384.47 39.67 384.48 C33.73 384.48 27.78 384.48 21.84 384.48 C19.4 384.48 16.95 384.48 14.51 384.49 C11.19 384.49 7.86 384.49 4.54 384.49 C3.56 384.49 2.58 384.5 1.58 384.5 C0.69 384.5 -0.2 384.49 -1.11 384.49 C-1.88 384.49 -2.64 384.49 -3.43 384.49 C-5.3 384.37 -5.3 384.37 -7.3 383.37 C-7.3 382.61 -7.3 381.85 -7.3 381.06 C-7.28 373.89 -7.26 366.73 -7.25 359.56 C-7.25 355.88 -7.24 352.19 -7.23 348.51 C-7.22 344.95 -7.21 341.4 -7.21 337.85 C-7.21 336.49 -7.2 335.13 -7.2 333.77 C-7.19 331.88 -7.19 329.98 -7.19 328.08 C-7.19 327 -7.19 325.92 -7.18 324.81 C-7.03 322.42 -7.03 322.42 -8.3 321.37 C-10.2 321.25 -12.09 321.2 -13.99 321.18 C-15.2 321.16 -16.42 321.15 -17.67 321.13 C-18.65 321.12 -18.65 321.12 -19.65 321.11 C-21.68 321.09 -23.72 321.06 -25.76 321.03 C-30.09 320.97 -34.41 320.92 -38.74 320.87 C-43.75 320.81 -48.76 320.75 -53.77 320.68 C-55.78 320.65 -57.79 320.63 -59.8 320.61 C-61.02 320.59 -62.24 320.58 -63.49 320.56 C-65.11 320.54 -65.11 320.54 -66.76 320.52 C-69.3 320.37 -69.3 320.37 -71.3 319.37 C-71.37 287.32 -71.43 255.26 -71.46 223.21 C-71.46 219.43 -71.47 215.65 -71.47 211.87 C-71.47 210.74 -71.47 210.74 -71.47 209.59 C-71.48 197.39 -71.51 185.19 -71.54 172.99 C-71.56 160.47 -71.58 147.96 -71.59 135.45 C-71.59 127.72 -71.6 120 -71.63 112.27 C-71.65 106.36 -71.65 100.44 -71.64 94.52 C-71.64 92.09 -71.65 89.66 -71.66 87.23 C-71.68 83.92 -71.67 80.61 -71.67 77.3 C-71.67 76.33 -71.68 75.35 -71.69 74.35 C-71.69 73.47 -71.68 72.58 -71.67 71.67 C-71.68 70.91 -71.68 70.15 -71.68 69.36 C-71.2 66.81 -70.34 65.92 -68.3 64.37 C-65.63 64.01 -65.63 64.01 -62.36 64.03 C-61.14 64.03 -59.92 64.03 -58.66 64.03 C-56.69 64.05 -56.69 64.05 -54.67 64.08 C-53.3 64.08 -51.94 64.09 -50.58 64.09 C-46.99 64.1 -43.41 64.13 -39.82 64.16 C-36.16 64.19 -32.5 64.21 -28.84 64.22 C-21.66 64.25 -14.48 64.31 -7.3 64.37 C-7.31 63.61 -7.32 62.85 -7.32 62.07 C-7.38 54.94 -7.43 47.8 -7.46 40.66 C-7.48 37 -7.5 33.33 -7.53 29.66 C-7.56 26.12 -7.58 22.58 -7.59 19.04 C-7.6 17.03 -7.62 15.02 -7.64 13.01 C-7.64 11.79 -7.65 10.57 -7.65 9.31 C-7.65 8.23 -7.66 7.16 -7.67 6.05 C-7.02 1.28 -4.59 -0.01 0 0 Z " fill="#FCFCFC" transform="translate(518.3047208786011,446.63085651397705)"/>
<path d="M0 0 C16.39 0.08 32.79 0.18 49.18 0.29 C56.79 0.34 64.4 0.38 72.02 0.42 C78.65 0.45 85.28 0.49 91.91 0.54 C95.43 0.57 98.94 0.59 102.45 0.6 C106.37 0.62 110.29 0.65 114.21 0.68 C115.96 0.68 115.96 0.68 117.76 0.69 C118.82 0.7 119.88 0.71 120.98 0.72 C122.37 0.73 122.37 0.73 123.79 0.74 C126 1 126 1 128 3 C128.24 5.56 128.24 5.56 128.23 8.83 C128.23 10.66 128.23 10.66 128.23 12.53 C128.22 13.86 128.21 15.2 128.2 16.54 C128.19 17.9 128.19 19.27 128.19 20.63 C128.18 24.23 128.16 27.82 128.14 31.41 C128.12 35.08 128.11 38.75 128.1 42.41 C128.08 49.61 128.04 56.8 128 64 C131.18 65.06 133.39 65.11 136.72 65.08 C138.49 65.07 138.49 65.07 140.28 65.06 C141.55 65.05 142.82 65.04 144.13 65.03 C146.12 65.02 148.1 65.01 150.09 65 C154.99 64.98 159.9 64.94 164.81 64.9 C167.56 64.88 170.31 64.87 173.07 64.86 C175.66 64.85 178.26 64.83 180.85 64.8 C182.61 64.79 182.61 64.79 184.4 64.79 C185.96 64.78 185.96 64.78 187.54 64.77 C190 65 190 65 192 67 C192.25 69.21 192.25 69.21 192.25 72.02 C192.25 73.08 192.26 74.14 192.26 75.23 C192.25 76.4 192.25 77.57 192.24 78.78 C192.24 80.01 192.25 81.23 192.25 82.5 C192.25 85.87 192.25 89.24 192.24 92.61 C192.23 96.14 192.23 99.66 192.23 103.18 C192.23 109.1 192.22 115.01 192.21 120.93 C192.19 127.78 192.18 134.63 192.19 141.47 C192.19 148.05 192.18 154.63 192.17 161.21 C192.17 164.01 192.17 166.82 192.17 169.62 C192.17 173.53 192.16 177.44 192.15 181.35 C192.15 183.11 192.15 183.11 192.15 184.9 C192.14 185.96 192.14 187.02 192.13 188.11 C192.13 189.5 192.13 189.5 192.13 190.91 C192 193 192 193 191 194 C189.04 194.09 187.07 194.12 185.1 194.11 C183.84 194.11 182.58 194.11 181.28 194.11 C179.89 194.11 178.51 194.1 177.12 194.1 C175.71 194.1 174.3 194.09 172.89 194.09 C169.17 194.09 165.45 194.08 161.73 194.07 C157.93 194.06 154.14 194.05 150.35 194.05 C142.9 194.04 135.45 194.02 128 194 C128 194.79 128 195.57 128.01 196.38 C128.03 203.79 128.04 211.19 128.05 218.59 C128.06 222.4 128.06 226.2 128.08 230.01 C128.09 233.68 128.09 237.35 128.09 241.02 C128.1 242.42 128.1 243.82 128.11 245.23 C128.11 247.19 128.11 249.14 128.11 251.1 C128.12 252.22 128.12 253.34 128.12 254.49 C128 257 128 257 127 258 C125.37 258.1 123.74 258.13 122.11 258.13 C120.52 258.14 120.52 258.14 118.9 258.15 C117.14 258.15 117.14 258.15 115.35 258.15 C113.51 258.15 113.51 258.15 111.64 258.16 C108.27 258.16 104.89 258.17 101.52 258.17 C98.71 258.17 95.9 258.17 93.09 258.18 C86.46 258.18 79.83 258.19 73.2 258.19 C66.35 258.18 59.51 258.2 52.66 258.21 C46.79 258.22 40.92 258.23 35.05 258.23 C31.54 258.23 28.03 258.23 24.52 258.24 C20.6 258.25 16.69 258.25 12.78 258.24 C11.61 258.25 10.44 258.25 9.23 258.26 C7.64 258.25 7.64 258.25 6.02 258.25 C5.09 258.25 4.17 258.25 3.21 258.25 C1 258 1 258 -1 256 C-1.28 253.44 -1.28 253.44 -1.32 250.17 C-1.34 248.95 -1.36 247.73 -1.38 246.47 C-1.39 245.14 -1.4 243.8 -1.41 242.46 C-1.43 241.1 -1.45 239.73 -1.47 238.37 C-1.52 234.77 -1.56 231.18 -1.6 227.59 C-1.64 223.92 -1.69 220.25 -1.74 216.59 C-1.84 209.39 -1.92 202.2 -2 195 C-2.76 194.99 -3.52 194.98 -4.3 194.98 C-11.45 194.9 -18.61 194.81 -25.76 194.71 C-29.43 194.66 -33.11 194.62 -36.79 194.58 C-40.33 194.54 -43.88 194.49 -47.43 194.44 C-48.78 194.42 -50.14 194.41 -51.49 194.4 C-53.39 194.38 -55.28 194.35 -57.17 194.32 C-58.25 194.31 -59.33 194.29 -60.44 194.28 C-63 194 -63 194 -65 192 C-65.25 189.81 -65.25 189.81 -65.25 187.03 C-65.25 185.98 -65.26 184.92 -65.26 183.84 C-65.25 182.68 -65.25 181.52 -65.24 180.33 C-65.24 179.11 -65.25 177.9 -65.25 176.64 C-65.25 173.3 -65.25 169.96 -65.24 166.62 C-65.23 163.13 -65.23 159.64 -65.23 156.15 C-65.23 150.28 -65.22 144.42 -65.21 138.55 C-65.19 131.77 -65.18 124.98 -65.19 118.2 C-65.19 111.68 -65.18 105.16 -65.17 98.63 C-65.17 95.86 -65.17 93.08 -65.17 90.3 C-65.17 86.42 -65.16 82.55 -65.15 78.67 C-65.15 77.51 -65.15 76.35 -65.15 75.16 C-65.14 74.11 -65.14 73.06 -65.13 71.97 C-65.13 71.06 -65.13 70.14 -65.13 69.19 C-65 67 -65 67 -64 65 C-43.21 65 -22.42 65 -1 65 C-1.33 44.21 -1.66 23.42 -2 2 C-1.34 2 -0.68 2 0 2 C0 1.34 0 0.68 0 0 Z " fill="#FDFDFD" transform="translate(320,190)"/>
<path d="M0 0 C1.05 -0.01 2.1 -0.01 3.19 -0.02 C4.35 -0.01 5.5 -0.01 6.7 -0 C7.91 -0.01 9.13 -0.01 10.38 -0.02 C13.72 -0.02 17.06 -0.02 20.41 -0.01 C23.9 -0.01 27.39 -0.01 30.88 -0.02 C36.75 -0.02 42.61 -0.02 48.47 -0.01 C55.26 0 62.05 0 68.83 -0.01 C74.65 -0.02 80.47 -0.02 86.29 -0.02 C89.77 -0.01 93.25 -0.01 96.73 -0.02 C100.6 -0.03 104.48 -0.02 108.36 -0 C109.52 -0.01 110.67 -0.01 111.87 -0.02 C112.92 -0.01 113.97 -0.01 115.05 0 C115.97 0 116.89 0 117.83 0 C120.03 0.25 120.03 0.25 122.03 2.25 C122.27 4.47 122.27 4.47 122.27 7.28 C122.27 8.87 122.27 8.87 122.28 10.5 C122.27 12.26 122.27 12.26 122.25 14.05 C122.25 15.28 122.26 16.51 122.26 17.77 C122.25 21.15 122.24 24.52 122.23 27.9 C122.22 31.43 122.22 34.95 122.21 38.48 C122.21 45.16 122.19 51.84 122.17 58.52 C122.15 66.12 122.14 73.72 122.13 81.33 C122.11 96.97 122.07 112.61 122.03 128.25 C119.05 129.25 117.09 129.38 113.97 129.39 C112.93 129.39 111.88 129.4 110.81 129.4 C109.66 129.4 108.52 129.4 107.34 129.4 C105.53 129.4 105.53 129.4 103.68 129.41 C100.37 129.42 97.06 129.42 93.75 129.42 C90.99 129.42 88.23 129.43 85.47 129.43 C78.96 129.44 72.44 129.44 65.93 129.44 C59.21 129.44 52.48 129.45 45.76 129.47 C39.99 129.48 34.22 129.48 28.45 129.48 C25.01 129.48 21.56 129.49 18.11 129.5 C14.27 129.51 10.43 129.5 6.59 129.5 C5.44 129.5 4.29 129.51 3.11 129.51 C1.55 129.51 1.55 129.51 -0.04 129.5 C-0.95 129.5 -1.86 129.5 -2.8 129.5 C-4.97 129.25 -4.97 129.25 -6.97 127.25 C-7.22 125.06 -7.22 125.06 -7.23 122.28 C-7.23 121.23 -7.24 120.18 -7.24 119.09 C-7.24 117.94 -7.24 116.78 -7.23 115.58 C-7.23 114.37 -7.24 113.15 -7.24 111.9 C-7.25 108.56 -7.25 105.22 -7.24 101.88 C-7.24 98.38 -7.24 94.89 -7.24 91.4 C-7.25 85.54 -7.24 79.67 -7.23 73.81 C-7.22 67.02 -7.23 60.24 -7.24 53.45 C-7.25 47.63 -7.25 41.81 -7.24 35.99 C-7.24 32.51 -7.24 29.03 -7.25 25.55 C-7.25 21.68 -7.24 17.8 -7.23 13.92 C-7.24 12.77 -7.24 11.61 -7.24 10.41 C-7.24 9.36 -7.23 8.31 -7.23 7.23 C-7.23 6.31 -7.22 5.39 -7.22 4.45 C-6.7 -0.15 -3.93 0 0 0 Z " fill="#000000" transform="translate(581.9725341796875,574.7460327148438)"/>
<path d="M0 0 C8.05 -0.05 16.1 -0.08 24.15 -0.1 C27.89 -0.11 31.62 -0.13 35.36 -0.15 C38.96 -0.17 42.57 -0.18 46.17 -0.19 C47.55 -0.19 48.93 -0.2 50.31 -0.21 C52.23 -0.23 54.16 -0.23 56.08 -0.23 C57.18 -0.23 58.28 -0.24 59.41 -0.24 C62 0 62 0 64 2 C64.25 4.59 64.25 4.59 64.24 7.9 C64.25 9.76 64.25 9.76 64.25 11.65 C64.25 13.01 64.24 14.37 64.23 15.72 C64.23 17.11 64.23 18.49 64.23 19.88 C64.23 22.78 64.22 25.68 64.21 28.59 C64.19 32.31 64.18 36.04 64.19 39.77 C64.19 42.63 64.18 45.49 64.17 48.35 C64.17 49.72 64.17 51.1 64.17 52.47 C64.16 54.39 64.16 56.31 64.15 58.23 C64.14 59.32 64.14 60.41 64.13 61.54 C64 64 64 64 63 65 C61.08 65.1 59.15 65.14 57.23 65.15 C55.37 65.15 55.37 65.15 53.49 65.16 C52.13 65.17 50.77 65.17 49.41 65.17 C48.03 65.17 46.64 65.17 45.26 65.18 C42.35 65.18 39.45 65.19 36.55 65.19 C32.82 65.19 29.09 65.2 25.36 65.22 C22.5 65.23 19.65 65.23 16.79 65.23 C15.41 65.23 14.04 65.23 12.66 65.24 C10.74 65.25 8.82 65.25 6.9 65.24 C5.26 65.25 5.26 65.25 3.59 65.25 C1 65 1 65 -1 63 C-1.25 60.46 -1.25 60.46 -1.24 57.21 C-1.25 55.99 -1.25 54.78 -1.25 53.52 C-1.25 52.21 -1.24 50.89 -1.23 49.53 C-1.23 48.17 -1.23 46.81 -1.23 45.45 C-1.23 42.6 -1.22 39.75 -1.21 36.9 C-1.19 33.24 -1.18 29.58 -1.19 25.92 C-1.19 23.11 -1.18 20.3 -1.17 17.49 C-1.17 15.49 -1.17 13.48 -1.16 11.48 C-1.16 10.26 -1.15 9.05 -1.15 7.79 C-1.14 6.19 -1.14 6.19 -1.13 4.54 C-1 2 -1 2 0 0 Z " fill="#FDFDFD" transform="translate(192,511)"/>
<path d="M0 0 C1.62 0.01 1.62 0.01 3.27 0.01 C5.1 0.01 5.1 0.01 6.97 0.01 C8.31 0.02 9.65 0.03 10.98 0.05 C12.35 0.05 13.71 0.05 15.08 0.05 C18.67 0.06 22.26 0.08 25.86 0.1 C29.52 0.12 33.19 0.13 36.86 0.14 C44.05 0.16 51.25 0.2 58.44 0.24 C61.96 7.27 60.58 17.79 60.54 25.47 C60.54 26.59 60.54 27.7 60.54 28.85 C60.53 32.38 60.52 35.9 60.51 39.43 C60.5 41.83 60.5 44.24 60.49 46.65 C60.48 52.51 60.46 58.38 60.44 64.24 C57.35 65.27 55.2 65.37 51.95 65.39 C50.26 65.4 50.26 65.4 48.54 65.41 C46.72 65.41 46.72 65.41 44.86 65.41 C43.61 65.41 42.36 65.42 41.07 65.42 C38.43 65.42 35.78 65.43 33.14 65.43 C29.76 65.43 26.38 65.44 22.99 65.46 C19.76 65.47 16.53 65.47 13.3 65.47 C12.08 65.48 10.87 65.49 9.62 65.49 C8.49 65.49 7.36 65.49 6.2 65.48 C5.2 65.48 4.21 65.49 3.19 65.49 C0.27 65.22 -1.91 64.46 -4.56 63.24 C-4.6 55.32 -4.64 47.4 -4.66 39.48 C-4.67 35.81 -4.68 32.13 -4.71 28.45 C-4.73 24.91 -4.74 21.36 -4.75 17.81 C-4.75 16.46 -4.76 15.1 -4.77 13.75 C-4.78 11.86 -4.78 9.96 -4.78 8.07 C-4.79 6.45 -4.79 6.45 -4.8 4.8 C-4.46 1.23 -3.57 0.34 0 0 Z " fill="#000000" transform="translate(771.5563049316406,766.7594909667969)"/>
<path d="M0 0 C8.07 -0.02 16.13 -0.04 24.2 -0.05 C27.94 -0.06 31.69 -0.06 35.44 -0.08 C39.05 -0.09 42.66 -0.09 46.27 -0.09 C47.65 -0.1 49.03 -0.1 50.41 -0.11 C52.34 -0.11 54.27 -0.11 56.2 -0.11 C57.29 -0.12 58.39 -0.12 59.53 -0.12 C62 0 62 0 63 1 C63.12 2.96 63.18 4.93 63.21 6.9 C63.23 8.18 63.25 9.45 63.27 10.77 C63.28 12.14 63.3 13.51 63.32 14.88 C63.34 16.12 63.35 17.35 63.37 18.63 C63.44 23.27 63.5 27.92 63.56 32.56 C63.71 42.94 63.85 53.31 64 64 C43.21 63.67 22.42 63.34 1 63 C-0.35 60.3 -0.12 58.2 -0.11 55.17 C-0.11 53.34 -0.11 53.34 -0.11 51.47 C-0.11 50.14 -0.1 48.8 -0.1 47.46 C-0.1 46.1 -0.09 44.73 -0.09 43.37 C-0.09 39.77 -0.08 36.18 -0.07 32.59 C-0.06 28.92 -0.05 25.25 -0.05 21.59 C-0.04 14.39 -0.02 7.2 0 0 Z " fill="#E81619" transform="translate(448,384)"/>
</svg>
